<svg xmlns="http://www.w3.org/2000/svg" xmlns:xlink="http://www.w3.org/1999/xlink" fill="none" version="1.1" width="16" height="14" viewBox="0 0 16 14"><g style="mix-blend-mode:passthrough"><path d="M0,1C4.85724e-17,0.734784,0.105357,0.480428,0.292893,0.292893C0.480428,0.105357,0.734784,2.22045e-16,1,0C1,0,15,0,15,0C15.2652,2.22045e-16,15.5196,0.105357,15.7071,0.292893C15.8946,0.480428,16,0.734784,16,1C16,1,16,3,16,3C16,3.26522,15.8946,3.51957,15.7071,3.70711C15.5196,3.89464,15.2652,4,15,4C15,4,15,11.5,15,11.5C15,12.163,14.7366,12.7989,14.2678,13.2678C13.7989,13.7366,13.163,14,12.5,14C12.5,14,3.5,14,3.5,14C2.83696,14,2.20108,13.7366,1.73223,13.2678C1.26339,12.7989,1,12.163,1,11.5C1,11.5,1,4,1,4C0.734784,4,0.480428,3.89464,0.292893,3.70711C0.105357,3.51957,1.45717e-16,3.26522,0,3C0,3,0,1,0,1C0,1,0,1,0,1ZM2,4C2,4,2,11.5,2,11.5C2,11.8978,2.15804,12.2794,2.43934,12.5607C2.72064,12.842,3.10218,13,3.5,13C3.5,13,12.5,13,12.5,13C12.8978,13,13.2794,12.842,13.5606,12.5607C13.842,12.2794,14,11.8978,14,11.5C14,11.5,14,4,14,4C14,4,2,4,2,4C2,4,2,4,2,4ZM15,1C15,1,1,1,1,1C1,1,1,3,1,3C1,3,15,3,15,3C15,3,15,1,15,1C15,1,15,1,15,1ZM5,6.5C5,6.3674,5.05268,6.2402,5.14644,6.14644C5.2402,6.05268,5.3674,6,5.5,6C5.5,6,10.5,6,10.5,6C10.6326,6,10.7598,6.05268,10.8536,6.14644C10.9473,6.2402,11,6.3674,11,6.5C11,6.6326,10.9473,6.7598,10.8536,6.85356C10.7598,6.94732,10.6326,7,10.5,7C10.5,7,5.5,7,5.5,7C5.3674,7,5.2402,6.94732,5.14644,6.85356C5.05268,6.7598,5,6.6326,5,6.5C5,6.5,5,6.5,5,6.5Z" fill="#10B981" fill-opacity="1"/></g></svg>