<svg xmlns="http://www.w3.org/2000/svg" xmlns:xlink="http://www.w3.org/1999/xlink" fill="none" version="1.1" width="20" height="20" viewBox="0 0 20 20"><clipPath id="master_svg0_16_1239"><rect x="0" y="0" width="20" height="20" rx="0"/></clipPath><g clip-path="url(#master_svg0_16_1239)" style="mix-blend-mode:passthrough"><g><g style="mix-blend-mode:passthrough"><g><g style="mix-blend-mode:passthrough"><path d="M10.000009059906006,6.005822658538818C10.132609059906006,6.005822658538818,10.259809059906006,6.058501058538818,10.353569059906006,6.152269658538819C10.447329059906007,6.246037658538818,10.500009059906006,6.373213658538818,10.500009059906006,6.505822658538818C10.500009059906006,6.505822658538818,10.500009059906006,8.005822658538818,10.500009059906006,8.005822658538818C10.500009059906006,8.138432658538818,10.447329059906007,8.265602658538818,10.353569059906006,8.359372658538819C10.259809059906006,8.453142658538818,10.132609059906006,8.505822658538818,10.000009059906006,8.505822658538818C9.867409059906006,8.505822658538818,9.740209059906006,8.453142658538818,9.646449059906006,8.359372658538819C9.552689059906005,8.265602658538818,9.500009059906006,8.138432658538818,9.500009059906006,8.005822658538818C9.500009059906006,8.005822658538818,9.500009059906006,6.505822658538818,9.500009059906006,6.505822658538818C9.500009059906006,6.373213658538818,9.552689059906005,6.246037658538818,9.646449059906006,6.152269658538819C9.740209059906006,6.058501058538818,9.867409059906006,6.005822658538818,10.000009059906006,6.005822658538818C10.000009059906006,6.005822658538818,10.000009059906006,6.005822658538818,10.000009059906006,6.005822658538818C10.000009059906006,6.005822658538818,10.000009059906006,6.005822658538818,10.000009059906006,6.005822658538818ZM5.732009059906006,7.737822658538819C5.825769059906006,7.644082658538818,5.952929059906006,7.591422658538818,6.0855090599060055,7.591422658538818C6.218089059906006,7.591422658538818,6.345249059906006,7.644082658538818,6.439009059906006,7.737822658538819C6.439009059906006,7.737822658538819,7.354009059906006,8.65182265853882,7.354009059906006,8.65182265853882C7.400499059906005,8.698312658538818,7.437369059906006,8.753492658538818,7.4625290599060055,8.814232658538819C7.487689059906006,8.874972658538818,7.500639059906006,8.940072658538819,7.500639059906006,9.005822658538818C7.500639059906006,9.071562658538818,7.487689059906006,9.136662658538818,7.4625290599060055,9.197402658538818C7.437369059906006,9.25814265853882,7.400499059906005,9.313332658538819,7.354009059906006,9.359822658538818C7.3075190599060065,9.406312658538818,7.252329059906006,9.443182658538818,7.191589059906006,9.468342658538818C7.130849059906006,9.49350265853882,7.065749059906006,9.50645265853882,7.000009059906006,9.50645265853882C6.934269059906006,9.50645265853882,6.869169059906006,9.49350265853882,6.808429059906006,9.468342658538818C6.747689059906006,9.443182658538818,6.692499059906005,9.406312658538818,6.646009059906006,9.359822658538818C6.646009059906006,9.359822658538818,5.732009059906006,8.444822658538818,5.732009059906006,8.444822658538818C5.638269059906006,8.351062658538819,5.585619059906006,8.223902658538819,5.585619059906006,8.091322658538818C5.585619059906006,7.958742658538818,5.638269059906006,7.831582658538818,5.732009059906006,7.737822658538819C5.732009059906006,7.737822658538819,5.732009059906006,7.737822658538819,5.732009059906006,7.737822658538819C5.732009059906006,7.737822658538819,5.732009059906006,7.737822658538819,5.732009059906006,7.737822658538819ZM4.000009059906006,12.005822658538818C4.000009059906006,11.873222658538818,4.052687459906005,11.746022658538818,4.146456059906006,11.652262658538818C4.240224059906006,11.558502658538817,4.367401059906006,11.505822658538818,4.500009059906006,11.505822658538818C4.500009059906006,11.505822658538818,6.086009059906006,11.505822658538818,6.086009059906006,11.505822658538818C6.218619059906006,11.505822658538818,6.345789059906005,11.558502658538817,6.439559059906006,11.652262658538818C6.533329059906006,11.746022658538818,6.586009059906006,11.873222658538818,6.586009059906006,12.005822658538818C6.586009059906006,12.138422658538818,6.533329059906006,12.265622658538819,6.439559059906006,12.359382658538818C6.345789059906005,12.45314265853882,6.218619059906006,12.505822658538818,6.086009059906006,12.505822658538818C6.086009059906006,12.505822658538818,4.500009059906006,12.505822658538818,4.500009059906006,12.505822658538818C4.367401059906006,12.505822658538818,4.240224059906006,12.45314265853882,4.146456059906006,12.359382658538818C4.052687459906005,12.265622658538819,4.000009059906006,12.138422658538818,4.000009059906006,12.005822658538818C4.000009059906006,12.005822658538818,4.000009059906006,12.005822658538818,4.000009059906006,12.005822658538818ZM13.500009059906006,12.005822658538818C13.500009059906006,11.873222658538818,13.552689059906006,11.746022658538818,13.646449059906006,11.652262658538818C13.740209059906006,11.558502658538817,13.867409059906006,11.505822658538818,14.000009059906006,11.505822658538818C14.000009059906006,11.505822658538818,15.500009059906006,11.505822658538818,15.500009059906006,11.505822658538818C15.632609059906006,11.505822658538818,15.759809059906006,11.558502658538817,15.853609059906006,11.652262658538818C15.947309059906006,11.746022658538818,16.000009059906006,11.873222658538818,16.000009059906006,12.005822658538818C16.000009059906006,12.138422658538818,15.947309059906006,12.265622658538819,15.853609059906006,12.359382658538818C15.759809059906006,12.45314265853882,15.632609059906006,12.505822658538818,15.500009059906006,12.505822658538818C15.500009059906006,12.505822658538818,14.000009059906006,12.505822658538818,14.000009059906006,12.505822658538818C13.867409059906006,12.505822658538818,13.740209059906006,12.45314265853882,13.646449059906006,12.359382658538818C13.552689059906006,12.265622658538819,13.500009059906006,12.138422658538818,13.500009059906006,12.005822658538818C13.500009059906006,12.005822658538818,13.500009059906006,12.005822658538818,13.500009059906006,12.005822658538818ZM14.254009059906005,7.759822658538818C14.184709059906005,7.6909026585388185,14.092009059906006,7.650592658538819,13.994409059906006,7.646882658538818C13.896769059906006,7.6431826585388185,13.801289059906006,7.676352658538819,13.727009059906006,7.739822658538818C13.727009059906006,7.739822658538818,9.547009059906006,11.315822658538817,9.547009059906006,11.315822658538817C9.449609059906006,11.397862658538818,9.370529059906005,11.499462658538818,9.314889059906005,11.614022658538818C9.259209059906006,11.728542658538817,9.228209059906007,11.853502658538819,9.223889059906007,11.980782658538818C9.219529059906005,12.108062658538818,9.241969059906005,12.234822658538818,9.289729059906005,12.352902658538818C9.337449059906007,12.470942658538817,9.409449059906006,12.577662658538818,9.501049059906006,12.666182658538819C9.592609059906007,12.75466265853882,9.701769059906006,12.822942658538818,9.821409059906006,12.866582658538817C9.941009059906005,12.91026265853882,10.068489059906007,12.928302658538819,10.195529059906006,12.919622658538819C10.322609059906007,12.910902658538818,10.446409059906006,12.875622658538818,10.558969059906005,12.816062658538819C10.671529059906007,12.756502658538817,10.770329059906006,12.673982658538819,10.849009059906006,12.573822658538818C10.849009059906006,12.573822658538818,14.283009059906005,8.27682265853882,14.283009059906005,8.27682265853882C14.342709059906007,8.202032658538819,14.372809059906006,8.107852658538818,14.367509059906006,8.012282658538819C14.362109059906006,7.916712658538819,14.321709059906006,7.826472658538819,14.254009059906005,7.7588226585388185C14.254009059906005,7.7588226585388185,14.254009059906005,7.759822658538818,14.254009059906005,7.759822658538818C14.254009059906005,7.759822658538818,14.254009059906005,7.759822658538818,14.254009059906005,7.759822658538818Z" fill="#10B981" fill-opacity="1"/></g><g style="mix-blend-mode:passthrough"><path d="M2.000016751901797,12.005946877288817C2.001062124091797,10.841746877288818,2.256189444091797,9.691826877288818,2.747587444091797,8.63642687728882C3.2389914440917966,7.581006877288818,3.954811444091797,6.645566877288818,4.845101444091797,5.895396877288818C5.7353814440917965,5.145226877288819,6.7786914440917965,4.598410877288819,7.902131444091797,4.293115877288819C9.025571444091796,3.9878212772888184,10.202131444091798,3.9314081772888185,11.349651444091798,4.127814877288818C12.497211444091796,4.324220877288818,13.588011444091796,4.768714877288819,14.546011444091796,5.430266877288818C15.503911444091797,6.0918068772888185,16.306011444091794,6.9544668772888185,16.896111444091797,7.958026877288818C17.486211444091797,8.961586877288818,17.850211444091798,10.081826877288819,17.9626114440918,11.240586877288818C18.075011444091796,12.399346877288819,17.933211444091796,13.568666877288818,17.547011444091797,14.666946877288819C17.105011444091797,15.919946877288819,15.702011444091797,16.26894687728882,14.615011444091797,15.916946877288819C13.309011444091796,15.493946877288819,11.475011444091797,15.00594687728882,10.000011444091797,15.00594687728882C8.526011444091797,15.00594687728882,6.690011444091797,15.493946877288819,5.385011444091797,15.916946877288819C4.298011444091797,16.26894687728882,2.895015444091797,15.919946877288819,2.453015444091797,14.666946877288819C2.1521584440917967,13.812066877288819,1.998972024091797,12.912226877288818,2.000016751901797,12.005946877288817C2.000016751901797,12.005946877288817,2.000016751901797,12.005946877288817,2.000016751901797,12.005946877288817C2.000016751901797,12.005946877288817,2.000016751901797,12.005946877288817,2.000016751901797,12.005946877288817ZM10.000011444091797,5.005962877288819C8.880371444091796,5.005674877288818,7.777011444091797,5.273956877288819,6.782531444091797,5.788296877288818C5.788031444091796,6.302636877288818,4.931411444091797,7.048016877288818,4.284581444091797,7.961896877288819C3.637751444091797,8.875786877288817,3.219561444091797,9.931466877288818,3.0651214440917967,11.040386877288817C2.910683444091797,12.149306877288819,3.024501444091797,13.279106877288818,3.397011444091797,14.334946877288818C3.600011444091797,14.909946877288819,4.320011444091797,15.21094687728882,5.077011444091797,14.964946877288819C6.397011444091797,14.538946877288819,8.358011444091797,14.00594687728882,10.000011444091797,14.00594687728882C11.642011444091796,14.00594687728882,13.604011444091796,14.53794687728882,14.923011444091797,14.965946877288818C15.680011444091797,15.21094687728882,16.400011444091795,14.909946877288819,16.6030114440918,14.334946877288818C16.975511444091797,13.279106877288818,17.0893114440918,12.149306877288819,16.934911444091796,11.040386877288817C16.780411444091797,9.931466877288818,16.362311444091794,8.875786877288817,15.715411444091798,7.961896877288819C15.068611444091797,7.048016877288818,14.212011444091797,6.302636877288818,13.217511444091796,5.788296877288818C12.223011444091798,5.273956877288819,11.119651444091797,5.005674877288818,10.000011444091797,5.005962877288819C10.000011444091797,5.005962877288819,10.000011444091797,5.005962877288819,10.000011444091797,5.005962877288819C10.000011444091797,5.005962877288819,10.000011444091797,5.005962877288819,10.000011444091797,5.005962877288819Z" fill-rule="evenodd" fill="#10B981" fill-opacity="1"/></g></g></g></g></g></svg>