<svg xmlns="http://www.w3.org/2000/svg" xmlns:xlink="http://www.w3.org/1999/xlink" fill="none" version="1.1" width="20" height="20" viewBox="0 0 20 20"><clipPath id="master_svg0_16_1231"><rect x="0" y="0" width="20" height="20" rx="0"/></clipPath><g clip-path="url(#master_svg0_16_1231)" style="mix-blend-mode:passthrough"><g><g style="mix-blend-mode:passthrough"><g><g style="mix-blend-mode:passthrough"><path d="M4.864594741210937,16.848060181045533C4.786594741210937,17.291960181045532,5.224584741210938,17.63886018104553,5.610584741210937,17.440860181045533C5.610584741210937,17.440860181045533,10.000524741210938,15.185460181045531,10.000524741210938,15.185460181045531C10.000524741210938,15.185460181045531,14.389484741210937,17.440860181045533,14.389484741210937,17.440860181045533C14.775484741210937,17.63886018104553,15.213384741210938,17.291960181045532,15.135384741210938,16.84906018104553C15.135384741210938,16.84906018104553,14.305484741210938,12.120270181045532,14.305484741210938,12.120270181045532C14.305484741210938,12.120270181045532,17.82738474121094,8.765140181045531,17.82738474121094,8.765140181045531C18.157384741210937,8.451220181045532,17.98738474121094,7.877380181045532,17.54538474121094,7.815420181045532C17.54538474121094,7.815420181045532,12.647484741210938,7.119580181045532,12.647484741210938,7.119580181045532C12.647484741210938,7.119580181045532,10.463524741210938,2.7937271810455324,10.463524741210938,2.7937271810455324C10.421884741210938,2.7060391810455324,10.356284741210937,2.631953181045532,10.274204741210937,2.580075481045532C10.192164741210938,2.528198481045532,10.097084741210937,2.5006601810455322,10.000004741210937,2.5006601810455322C9.902924741210938,2.5006601810455322,9.807844741210937,2.528198481045532,9.725804741210936,2.580075481045532C9.643764741210937,2.631953181045532,9.578124741210939,2.7060391810455324,9.536514741210937,2.7937271810455324C9.536514741210937,2.7937271810455324,7.3525547412109376,7.120580181045532,7.3525547412109376,7.120580181045532C7.3525547412109376,7.120580181045532,2.4546297412109377,7.816420181045532,2.4546297412109377,7.816420181045532C2.0136379412109373,7.878380181045532,1.8426407412109376,8.452220181045533,2.1716357412109373,8.766140181045532C2.1716357412109373,8.766140181045532,5.694584741210937,12.121270181045531,5.694584741210937,12.121270181045531C5.694584741210937,12.121270181045531,4.864594741210937,16.85006018104553,4.864594741210937,16.85006018104553C4.864594741210937,16.85006018104553,4.864594741210937,16.848060181045533,4.864594741210937,16.848060181045533C4.864594741210937,16.848060181045533,4.864594741210937,16.848060181045533,4.864594741210937,16.848060181045533ZM9.769524741210937,14.081760181045532C9.769524741210937,14.081760181045532,6.083594741210938,15.975260181045533,6.083594741210938,15.975260181045533C6.083594741210938,15.975260181045533,6.777554741210937,12.019310181045531,6.777554741210937,12.019310181045531C6.7938347412109374,11.928230181045532,6.7874747412109375,11.834590181045533,6.759034741210938,11.746550181045532C6.730634741210937,11.658510181045532,6.680994741210937,11.578830181045532,6.614554741210937,11.514430181045531C6.614554741210937,11.514430181045531,3.708614741210938,8.745180181045532,3.708614741210938,8.745180181045532C3.708614741210938,8.745180181045532,7.760554741210938,8.169300181045532,7.760554741210938,8.169300181045532C7.844434741210938,8.156660181045531,7.924034741210938,8.123820181045533,7.992474741210938,8.073700181045531C8.060914741210937,8.023540181045533,8.116194741210936,7.957580181045532,8.153554741210938,7.881380181045532C8.153554741210938,7.881380181045532,9.998524741210938,4.224350181045532,9.998524741210938,4.224350181045532C9.998524741210938,4.224350181045532,11.845484741210937,7.881380181045532,11.845484741210937,7.881380181045532C11.882844741210938,7.957580181045532,11.938084741210938,8.023540181045533,12.006584741210938,8.073700181045531C12.074984741210937,8.123820181045533,12.154584741210938,8.156660181045531,12.238484741210938,8.169300181045532C12.238484741210938,8.169300181045532,16.290384741210936,8.744180181045532,16.290384741210936,8.744180181045532C16.290384741210936,8.744180181045532,13.384484741210937,11.513430181045532,13.384484741210937,11.513430181045532C13.317884741210937,11.577910181045532,13.268184741210938,11.657790181045533,13.239684741210937,11.746030181045532C13.211284741210937,11.834230181045532,13.205084741210937,11.928110181045533,13.221484741210938,12.019310181045531C13.221484741210938,12.019310181045531,13.915484741210937,15.975260181045533,13.915484741210937,15.975260181045533C13.915484741210937,15.975260181045533,10.229524741210938,14.081760181045532,10.229524741210938,14.081760181045532C10.158244741210938,14.045060181045532,10.079204741210937,14.025860181045532,9.999004741210937,14.025860181045532C9.918804741210938,14.025860181045532,9.839804741210937,14.045060181045532,9.768524741210937,14.081760181045532C9.768524741210937,14.081760181045532,9.769524741210937,14.081760181045532,9.769524741210937,14.081760181045532C9.769524741210937,14.081760181045532,9.769524741210937,14.081760181045532,9.769524741210937,14.081760181045532Z" fill="#10B981" fill-opacity="1"/></g></g></g></g></g></svg>