<svg xmlns="http://www.w3.org/2000/svg" xmlns:xlink="http://www.w3.org/1999/xlink" fill="none" version="1.1" width="10.000000953674316" height="17.499536514282227" viewBox="0 0 10.000000953674316 17.499536514282227"><g style="mix-blend-mode:passthrough"><path d="M5,1.24954C4.50756,1.24954,4.01992,1.34653,3.56494,1.53499C3.10997,1.72344,2.69657,1.99967,2.34835,2.34789C2.00013,2.6961,1.72391,3.1095,1.53545,3.56447C1.347,4.01944,1.25,4.50708,1.25,4.99952C1.25,5.492,1.347,5.97964,1.53545,6.4346C1.72391,6.88956,2.00013,7.30296,2.34835,7.6512C2.69657,7.9994,3.10997,8.27564,3.56494,8.46408C4.01992,8.65252,4.50756,8.74952,5,8.74952C5.99456,8.74952,6.9484,8.35444,7.65164,7.6512C8.35492,6.94792,8.75,5.99408,8.75,4.99952C8.75,4.00496,8.35492,3.05115,7.65164,2.34789C6.9484,1.64462,5.99456,1.24954,5,1.24954C5,1.24954,5,1.24954,5,1.24954C5,1.24954,5,1.24954,5,1.24954ZM8.80737e-7,4.99952C0.000090616,4.03732,0.277822,3.09556,0.799868,2.28728C1.32192,1.47899,2.0661,0.8385,2.94313,0.442668C3.82016,0.0468385,4.79276,-0.0875231,5.74428,0.0557077C6.69576,0.198938,7.58572,0.613676,8.30736,1.25016C9.029,1.88664,9.55164,2.71782,9.8126,3.64398C10.0736,4.57012,10.0618,5.55192,9.77856,6.47152C9.49536,7.39112,8.95288,8.20948,8.21612,8.8284C7.47936,9.44732,6.57968,9.84052,5.625,9.9608C5.625,9.9608,5.625,16.8745,5.625,16.8745C5.625,17.0403,5.55916,17.1993,5.44196,17.3165C5.32472,17.4337,5.16576,17.4995,5,17.4995C4.83424,17.4995,4.67528,17.4337,4.55804,17.3165C4.44084,17.1993,4.375,17.0403,4.375,16.8745C4.375,16.8745,4.375,9.96204,4.375,9.96204C3.16621,9.80976,2.05461,9.22132,1.24902,8.30732C0.443428,7.39332,-0.000721888,6.21664,8.80737e-7,4.99828C8.80737e-7,4.99828,8.80737e-7,4.99952,8.80737e-7,4.99952C8.80737e-7,4.99952,8.80737e-7,4.99952,8.80737e-7,4.99952Z" fill-rule="evenodd" fill="#FACC15" fill-opacity="1"/></g></svg>