<svg xmlns="http://www.w3.org/2000/svg" xmlns:xlink="http://www.w3.org/1999/xlink" fill="none" version="1.1" width="20" height="20" viewBox="0 0 20 20"><clipPath id="master_svg0_16_1237"><rect x="0" y="0" width="20" height="20" rx="0"/></clipPath><g clip-path="url(#master_svg0_16_1237)" style="mix-blend-mode:passthrough"><g><g style="mix-blend-mode:passthrough"><g><g style="mix-blend-mode:passthrough"><path d="M3.75,11.875C3.25272,11.875,2.775804,11.67746,2.424176,11.32582C2.072544,10.9742,1.8750000000000007,10.49728,1.875,10C1.8750000000000002,9.50272,2.072544,9.025804,2.424176,8.674176C2.775804,8.322544,3.25272,8.125000000000002,3.75,8.125C4.24728,8.125,4.7242,8.322544,5.07582,8.674176C5.42746,9.025804,5.625,9.50272,5.625,10C5.625,10.49728,5.42746,10.9742,5.07582,11.32582C4.7242,11.67746,4.24728,11.875,3.75,11.875C3.75,11.875,3.75,11.875,3.75,11.875ZM10,11.875C9.50272,11.875,9.0258,11.67746,8.67416,11.32582C8.32256,10.9742,8.125,10.49728,8.125,10C8.125,9.50272,8.32256,9.025804,8.67416,8.674176C9.0258,8.322544,9.50272,8.125000000000002,10,8.125C10.49728,8.125,10.9742,8.322544,11.32584,8.674176C11.67744,9.025804,11.875,9.50272,11.875,10C11.875,10.49728,11.67744,10.9742,11.32584,11.32582C10.9742,11.67746,10.49728,11.875,10,11.875C10,11.875,10,11.875,10,11.875ZM16.25,11.875C15.7527,11.875,15.2758,11.67746,14.9242,11.32582C14.5726,10.9742,14.375,10.49728,14.375,10C14.375,9.50272,14.5726,9.025804,14.9242,8.674176C15.2758,8.322544,15.7527,8.125000000000002,16.25,8.125C16.7473,8.125,17.2242,8.322544,17.5758,8.674176C17.9274,9.025804,18.125,9.50272,18.125,10C18.125,10.49728,17.9274,10.9742,17.5758,11.32582C17.2242,11.67746,16.7473,11.875,16.25,11.875C16.25,11.875,16.25,11.875,16.25,11.875Z" fill="#10B981" fill-opacity="1"/></g></g></g></g></g></svg>