<svg xmlns="http://www.w3.org/2000/svg" xmlns:xlink="http://www.w3.org/1999/xlink" fill="none" version="1.1" width="25.600000381469727" height="25.600000381469727" viewBox="0 0 25.600000381469727 25.600000381469727"><g style="mix-blend-mode:passthrough"><path d="M12.8,24C9.82957,24,6.9808,22.82,4.8804,20.7196C2.77999,18.6192,1.6,15.7704,1.6,12.8C1.6,9.82957,2.77999,6.9808,4.8804,4.8804C6.9808,2.77999,9.82957,1.6,12.8,1.6C15.7704,1.6,18.6192,2.77999,20.7196,4.8804C22.82,6.9808,24,9.82957,24,12.8C24,15.7704,22.82,18.6192,20.7196,20.7196C18.6192,22.82,15.7704,24,12.8,24C12.8,24,12.8,24,12.8,24ZM12.8,25.6C16.1948,25.6,19.4505,24.2515,21.8509,21.8509C24.2515,19.4505,25.6,16.1948,25.6,12.8C25.6,9.40525,24.2515,6.1495,21.8509,3.74903C19.4505,1.34857,16.1948,2.13163e-15,12.8,0C9.40525,2.4869e-15,6.1495,1.34857,3.74903,3.74903C1.34857,6.1495,3.4639e-15,9.40525,0,12.8C2.66454e-15,16.1948,1.34857,19.4505,3.74903,21.8509C6.1495,24.2515,9.40525,25.6,12.8,25.6C12.8,25.6,12.8,25.6,12.8,25.6C12.8,25.6,12.8,25.6,12.8,25.6Z" fill="#10B981" fill-opacity="1"/></g></svg>