<svg xmlns="http://www.w3.org/2000/svg" xmlns:xlink="http://www.w3.org/1999/xlink" fill="none" version="1.1" width="20" height="20" viewBox="0 0 20 20"><clipPath id="master_svg0_16_1232"><rect x="0" y="0" width="20" height="20" rx="0"/></clipPath><g clip-path="url(#master_svg0_16_1232)" style="mix-blend-mode:passthrough"><g><g style="mix-blend-mode:passthrough"><g><g style="mix-blend-mode:passthrough"><path d="M7.9995284307479855,2.276454386192322C8.097128430747986,2.3950913861923215,8.156968430747986,2.540281386192322,8.171208430747985,2.6932663861923216C8.185488430747986,2.8462463861923215,8.153528430747986,2.9999933861923216,8.079528430747985,3.1346333861923217C7.501238430747986,4.196333386192322,7.199278430747986,5.386403386192322,7.201318430747986,6.595353386192322C7.201318430747986,10.617203386192323,10.480048430747987,13.873873386192322,14.520928430747986,13.873873386192322C15.048028430747985,13.873873386192322,15.561128430747987,13.818873386192323,16.054228430747983,13.713873386192322C16.205428430747986,13.681073386192322,16.362828430747985,13.693673386192321,16.506928430747983,13.749873386192322C16.651028430747985,13.806073386192322,16.775328430747987,13.903473386192323,16.864428430747985,14.029873386192321C16.958428430747986,14.161373386192322,17.006328430747985,14.320273386192321,17.000728430747984,14.481773386192321C16.995128430747986,14.643273386192321,16.936328430747984,14.798473386192322,16.833428430747986,14.923073386192321C16.048928430747985,15.886773386192322,15.059228430747986,16.66317338619232,13.936628430747986,17.19577338619232C12.813928430747985,17.728373386192324,11.586578430747986,18.00377338619232,10.344008430747985,18.001773386192323C5.733018430747986,18.001773386192323,1.9982284307479858,14.286973386192322,1.9982284307479858,9.710043386192321C1.9982284307479858,6.265273386192322,4.112678430747986,3.310673386192322,7.123318430747986,2.058407786192322C7.273278430747986,1.9950263161923218,7.439758430747986,1.9820175861923217,7.5977584307479855,2.0213356861923217C7.7557684307479855,2.0606538861923216,7.896728430747986,2.1501763861923218,7.9995284307479855,2.276454386192322C7.9995284307479855,2.276454386192322,7.9995284307479855,2.276454386192322,7.9995284307479855,2.276454386192322C7.9995284307479855,2.276454386192322,7.9995284307479855,2.276454386192322,7.9995284307479855,2.276454386192322ZM6.857278430747986,3.3096733861923218C5.699618430747986,3.930633386192322,4.731848430747986,4.853643386192322,4.056798430747985,5.9805933861923215C3.3817484307479857,7.107553386192322,3.0246484307479857,8.396353386192322,3.023448430747986,9.710043386192321C3.023448430747986,13.730873386192322,6.3031584307479855,16.987573386192324,10.344008430747985,16.987573386192324C11.311658430747986,16.989273386192323,12.270028430747987,16.798973386192323,13.163628430747986,16.42777338619232C14.057328430747987,16.05657338619232,14.868428430747986,15.511873386192322,15.550128430747986,14.825073386192322C15.213028430747986,14.867073386192322,14.870028430747986,14.888073386192321,14.520928430747986,14.888073386192321C9.909928430747986,14.888073386192321,6.1761184307479855,11.173323386192322,6.1761184307479855,6.596353386192321C6.1761184307479855,5.429123386192321,6.418158430747986,4.317883386192322,6.857278430747986,3.3096733861923218C6.857278430747986,3.3096733861923218,6.857278430747986,3.3096733861923218,6.857278430747986,3.3096733861923218C6.857278430747986,3.3096733861923218,6.857278430747986,3.3096733861923218,6.857278430747986,3.3096733861923218Z" fill="#10B981" fill-opacity="1"/></g><g style="mix-blend-mode:passthrough"><path d="M12.79442477596283,5.147209948692321C12.80876477596283,5.103899948692321,12.83639477596283,5.066199948692322,12.87338477596283,5.039479948692321C12.91036477596283,5.012769948692322,12.95483477596283,4.998389948692322,13.00046477596283,4.998389948692322C13.04609477596283,4.998389948692322,13.090564775962829,5.012769948692322,13.127544775962829,5.039479948692321C13.16453477596283,5.066199948692322,13.19216477596283,5.103899948692321,13.20650477596283,5.147209948692321C13.20650477596283,5.147209948692321,13.59358477596283,6.309439948692321,13.59358477596283,6.309439948692321C13.76662477596283,6.827559948692322,14.17272477596283,7.233639948692322,14.69080477596283,7.406679948692322C14.69080477596283,7.406679948692322,15.853044775962829,7.793759948692322,15.853044775962829,7.793759948692322C15.89636477596283,7.808119948692322,15.93408477596283,7.835719948692322,15.96080477596283,7.872719948692322C15.98748477596283,7.909719948692322,16.00188477596283,7.954159948692322,16.00188477596283,7.9997999486923215C16.00188477596283,8.045439948692323,15.98748477596283,8.089919948692323,15.96080477596283,8.126879948692322C15.93408477596283,8.163879948692323,15.89636477596283,8.19151994869232,15.853044775962829,8.205839948692322C15.853044775962829,8.205839948692322,14.69080477596283,8.592919948692321,14.69080477596283,8.592919948692321C14.43528477596283,8.678079948692321,14.203084775962829,8.821559948692322,14.01264477596283,9.01199994869232C13.82220477596283,9.202439948692323,13.678724775962829,9.434639948692322,13.59358477596283,9.690149948692323C13.59358477596283,9.690149948692323,13.20650477596283,10.852389948692322,13.20650477596283,10.852389948692322C13.19216477596283,10.895709948692321,13.16453477596283,10.933389948692321,13.127544775962829,10.960109948692322C13.090564775962829,10.986829948692321,13.04609477596283,11.001229948692322,13.00046477596283,11.001229948692322C12.95483477596283,11.001229948692322,12.91036477596283,10.986829948692321,12.87338477596283,10.960109948692322C12.83639477596283,10.933389948692321,12.80876477596283,10.895709948692321,12.79442477596283,10.852389948692322C12.79442477596283,10.852389948692322,12.40733477596283,9.690149948692323,12.40733477596283,9.690149948692323C12.32220477596283,9.434639948692322,12.178724775962829,9.202439948692323,11.988274775962829,9.01199994869232C11.79782477596283,8.821559948692322,11.56563477596283,8.678079948692321,11.310104775962829,8.592919948692321C11.310104775962829,8.592919948692321,10.14786277596283,8.205839948692322,10.14786277596283,8.205839948692322C10.10454877596283,8.19151994869232,10.06685557596283,8.163879948692323,10.04013997596283,8.126879948692322C10.013424475962829,8.089919948692323,9.999044775962828,8.045439948692323,9.99904477596283,7.9997999486923215C9.999044775962828,7.954159948692322,10.013424475962829,7.909719948692322,10.04013997596283,7.872719948692322C10.06685557596283,7.835719948692322,10.10454877596283,7.808119948692322,10.14786277596283,7.793759948692322C10.14786277596283,7.793759948692322,11.310104775962829,7.406679948692322,11.310104775962829,7.406679948692322C11.56563477596283,7.321559948692322,11.79782477596283,7.1780799486923215,11.988274775962829,6.9875999486923215C12.178724775962829,6.797159948692322,12.32220477596283,6.564959948692322,12.40733477596283,6.309439948692321C12.40733477596283,6.309439948692321,12.79442477596283,5.147209948692321,12.79442477596283,5.147209948692321C12.79442477596283,5.147209948692321,12.79442477596283,5.147209948692321,12.79442477596283,5.147209948692321C12.79442477596283,5.147209948692321,12.79442477596283,5.147209948692321,12.79442477596283,5.147209948692321ZM15.86408477596283,2.0975729486923216C15.87392477596283,2.0690934486923216,15.89244477596283,2.0443978486923218,15.91700477596283,2.026919748692322C15.94156477596283,2.009441808692322,15.97096477596283,2.0000499486923218,16.00108477596283,2.0000499486923218C16.03124477596283,2.0000499486923218,16.060644775962828,2.009441808692322,16.08520477596283,2.026919748692322C16.10976477596283,2.0443978486923218,16.12824477596283,2.0690934486923216,16.13812477596283,2.0975729486923216C16.13812477596283,2.0975729486923216,16.39616477596283,2.8717359486923217,16.39616477596283,2.8717359486923217C16.51120477596283,3.217809948692322,16.78224477596283,3.4888599486923217,17.12832477596283,3.6038899486923217C17.12832477596283,3.6038899486923217,17.90248477596283,3.8619399486923216,17.90248477596283,3.8619399486923216C17.930964775962828,3.871809948692322,17.95568477596283,3.890319948692322,17.97316477596283,3.9148699486923215C17.990644775962828,3.9394299486923217,18.00000477596283,3.9688299486923215,18.00000477596283,3.998969948692322C18.00000477596283,4.029109948692321,17.990644775962828,4.058509948692322,17.97316477596283,4.083059948692322C17.95568477596283,4.107619948692322,17.930964775962828,4.126129948692322,17.90248477596283,4.135999948692321C17.90248477596283,4.135999948692321,17.12832477596283,4.394049948692322,17.12832477596283,4.394049948692322C16.957804775962828,4.4507899486923215,16.80280477596283,4.546499948692322,16.67572477596283,4.673589948692322C16.548644775962828,4.800679948692322,16.452924775962828,4.955659948692322,16.39616477596283,5.126199948692322C16.39616477596283,5.126199948692322,16.13812477596283,5.900369948692322,16.13812477596283,5.900369948692322C16.12824477596283,5.928849948692322,16.10976477596283,5.953539948692322,16.08520477596283,5.971019948692321C16.060644775962828,5.988499948692322,16.03124477596283,5.997889948692322,16.00108477596283,5.997889948692322C15.97096477596283,5.997889948692322,15.94156477596283,5.988499948692322,15.91700477596283,5.971019948692321C15.89244477596283,5.953539948692322,15.87392477596283,5.928849948692322,15.86408477596283,5.900369948692322C15.86408477596283,5.900369948692322,15.60600477596283,5.126199948692322,15.60600477596283,5.126199948692322C15.549284775962828,4.955659948692322,15.453564775962828,4.800679948692322,15.326484775962829,4.673589948692322C15.19936477596283,4.546499948692322,15.044404775962828,4.4507899486923215,14.87384477596283,4.394049948692322C14.87384477596283,4.394049948692322,14.09968477596283,4.135999948692321,14.09968477596283,4.135999948692321C14.07120477596283,4.126129948692322,14.04652477596283,4.107619948692322,14.02904477596283,4.083059948692322C14.01156477596283,4.058509948692322,14.002164775962829,4.029109948692321,14.002164775962829,3.998969948692322C14.002164775962829,3.9688299486923215,14.01156477596283,3.9394299486923217,14.02904477596283,3.9148699486923215C14.04652477596283,3.890319948692322,14.07120477596283,3.871809948692322,14.09968477596283,3.8619399486923216C14.09968477596283,3.8619399486923216,14.87384477596283,3.6038899486923217,14.87384477596283,3.6038899486923217C15.21992477596283,3.4888599486923217,15.491004775962828,3.217809948692322,15.60600477596283,2.8717359486923217C15.60600477596283,2.8717359486923217,15.86408477596283,2.098572948692322,15.86408477596283,2.098572948692322C15.86408477596283,2.098572948692322,15.86408477596283,2.0975729486923216,15.86408477596283,2.0975729486923216C15.86408477596283,2.0975729486923216,15.86408477596283,2.0975729486923216,15.86408477596283,2.0975729486923216Z" fill="#10B981" fill-opacity="1"/></g></g></g></g></g></svg>