<svg xmlns="http://www.w3.org/2000/svg" xmlns:xlink="http://www.w3.org/1999/xlink" fill="none" version="1.1" width="16" height="16" viewBox="0 0 16 16"><clipPath id="master_svg0_16_3250/0_6659"><rect x="0" y="0" width="16" height="16" rx="0"/></clipPath><g clip-path="url(#master_svg0_16_3250/0_6659)" style="mix-blend-mode:passthrough"><g><g style="mix-blend-mode:passthrough"><g><g style="mix-blend-mode:passthrough"><path d="M11.156993838539124,2.333405017852783C11.156993838539124,2.333405017852783,1.6000038385391235,2.333405017852783,1.6000038385391235,2.333405017852783C1.6000038385391235,2.333405017852783,1.6000038385391235,3.902035017852783,1.6000038385391235,3.902035017852783C1.6000038385391235,3.902035017852783,11.156993838539124,3.902035017852783,11.156993838539124,3.902035017852783C11.156993838539124,3.902035017852783,11.156993838539124,2.333405017852783,11.156993838539124,2.333405017852783C11.156993838539124,2.333405017852783,11.156993838539124,2.333405017852783,11.156993838539124,2.333405017852783Z" fill="#F87171" fill-opacity="1"/></g><g style="mix-blend-mode:passthrough"><path d="M11.156993838539124,5.470652103424072C11.156993838539124,5.470652103424072,1.6000038385391235,5.470652103424072,1.6000038385391235,5.470652103424072C1.6000038385391235,5.470652103424072,1.6000038385391235,7.039282103424072,1.6000038385391235,7.039282103424072C1.6000038385391235,7.039282103424072,11.156993838539124,7.039282103424072,11.156993838539124,7.039282103424072C11.156993838539124,7.039282103424072,11.156993838539124,5.470652103424072,11.156993838539124,5.470652103424072C11.156993838539124,5.470652103424072,11.156993838539124,5.470652103424072,11.156993838539124,5.470652103424072Z" fill="#F87171" fill-opacity="1"/><path d="M1.6000038385391235,5.470652103424072L11.156993838539124,5.470652103424072L11.156993838539124,7.039282103424072L1.6000038385391235,7.039282103424072L1.6000038385391235,5.470652103424072Z" fill-rule="evenodd" fill="#F87171" fill-opacity="1"/></g><g style="mix-blend-mode:passthrough"><path d="M1.6000038385391235,8.607819080352783C1.6000038385391235,8.607819080352783,7.971333838539124,8.607819080352783,7.971333838539124,8.607819080352783C7.971333838539124,8.607819080352783,7.971333838539124,10.176449080352784,7.971333838539124,10.176449080352784C7.971333838539124,10.176449080352784,1.6000038385391235,10.176449080352784,1.6000038385391235,10.176449080352784C1.6000038385391235,10.176449080352784,1.6000038385391235,8.607819080352783,1.6000038385391235,8.607819080352783C1.6000038385391235,8.607819080352783,1.6000038385391235,8.607819080352783,1.6000038385391235,8.607819080352783C1.6000038385391235,8.607819080352783,1.6000038385391235,8.607819080352783,1.6000038385391235,8.607819080352783Z" fill="#F87171" fill-opacity="1"/><path d="M7.971333838539124,8.607819080352783L1.6000038385391235,8.607819080352783L1.6000038385391235,10.176449080352784L7.971333838539124,10.176449080352784L7.971333838539124,8.607819080352783Z" fill-rule="evenodd" fill="#F87171" fill-opacity="1"/></g><g style="mix-blend-mode:passthrough"><path d="M8.76787006855011,9.451825756835937C8.76787006855011,9.451825756835937,9.89480006855011,8.342025756835938,9.89480006855011,8.342025756835938C9.89480006855011,8.342025756835938,11.58400006855011,10.005555756835937,11.58400006855011,10.005555756835937C11.58400006855011,10.005555756835937,13.273190068550111,8.342809637835938,13.273190068550111,8.342809637835938C13.273190068550111,8.342809637835938,14.400130068550109,9.451045756835937,14.400130068550109,9.451045756835937C14.400130068550109,9.451045756835937,12.71014006855011,11.115355756835937,12.71014006855011,11.115355756835937C12.71014006855011,11.115355756835937,14.400130068550109,12.778085756835939,14.400130068550109,12.778085756835939C14.400130068550109,12.778085756835939,13.273190068550111,13.887905756835938,13.273190068550111,13.887905756835938C13.273190068550111,13.887905756835938,11.58400006855011,12.224385756835938,11.58400006855011,12.224385756835938C11.58400006855011,12.224385756835938,9.89480006855011,13.887905756835938,9.89480006855011,13.887905756835938C9.89480006855011,13.887905756835938,8.76787006855011,12.778885756835937,8.76787006855011,12.778885756835937C8.76787006855011,12.778885756835937,10.45787006855011,11.114565756835937,10.45787006855011,11.114565756835937C10.45787006855011,11.114565756835937,8.76787006855011,9.451825756835937,8.76787006855011,9.451825756835937C8.76787006855011,9.451825756835937,8.76787006855011,9.451825756835937,8.76787006855011,9.451825756835937C8.76787006855011,9.451825756835937,8.76787006855011,9.451825756835937,8.76787006855011,9.451825756835937Z" fill="#F87171" fill-opacity="1"/><path d="M9.89480006855011,8.342025756835938L8.76787006855011,9.451825756835937L10.45787006855011,11.114565756835937L8.76787006855011,12.778885756835937L9.89480006855011,13.887905756835938L11.58400006855011,12.224385756835938L13.273190068550111,13.887905756835938L14.400130068550109,12.778085756835939L12.71014006855011,11.115355756835937L14.400130068550109,9.451045756835937L13.273190068550111,8.342809637835938L11.58400006855011,10.005555756835937L9.89480006855011,8.342025756835938Z" fill-rule="evenodd" fill="#F87171" fill-opacity="1"/></g></g></g></g></g></svg>