<svg xmlns="http://www.w3.org/2000/svg" xmlns:xlink="http://www.w3.org/1999/xlink" fill="none" version="1.1" width="16" height="16" viewBox="0 0 16 16"><clipPath id="master_svg0_16_3428/0_6603"><rect x="0" y="0" width="16" height="16" rx="0"/></clipPath><g clip-path="url(#master_svg0_16_3428/0_6603)" style="mix-blend-mode:passthrough"><g><g style="mix-blend-mode:passthrough"><g><g style="mix-blend-mode:passthrough"><path d="M1.600000023841858,3.1999996185302733C1.600000023841858,2.9878266185302733,1.6842854238418579,2.7843416185302736,1.834315023841858,2.6343146185302735C1.9843420238418579,2.4842850185302736,2.187827023841858,2.3999996185302734,2.4000000238418577,2.3999996185302734C2.4000000238418577,2.3999996185302734,13.600000023841858,2.3999996185302734,13.600000023841858,2.3999996185302734C13.812200023841857,2.3999996185302734,14.015600023841857,2.4842850185302736,14.165700023841858,2.6343146185302735C14.315700023841858,2.7843416185302736,14.400000023841859,2.9878266185302733,14.400000023841859,3.1999996185302733C14.400000023841859,3.1999996185302733,14.400000023841859,4.799999618530274,14.400000023841859,4.799999618530274C14.400000023841859,5.012169618530273,14.315700023841858,5.215659618530273,14.165700023841858,5.365689618530274C14.015600023841857,5.515719618530273,13.812200023841857,5.599999618530274,13.600000023841858,5.599999618530274C13.600000023841858,5.599999618530274,13.600000023841858,11.599999618530273,13.600000023841858,11.599999618530273C13.600000023841858,12.130429618530274,13.389300023841859,12.639099618530274,13.014200023841857,13.014199618530274C12.639100023841857,13.389299618530274,12.130400023841858,13.599999618530273,11.600000023841858,13.599999618530273C11.600000023841858,13.599999618530273,4.400000023841858,13.599999618530273,4.400000023841858,13.599999618530273C3.8695700238418578,13.599999618530273,3.360860023841858,13.389299618530274,2.985790023841858,13.014199618530274C2.610710023841858,12.639099618530274,2.4000000238418577,12.130429618530274,2.4000000238418577,11.599999618530273C2.4000000238418577,11.599999618530273,2.4000000238418577,5.599999618530274,2.4000000238418577,5.599999618530274C2.187827023841858,5.599999618530274,1.9843420238418579,5.515719618530273,1.834315023841858,5.365689618530274C1.6842854238418579,5.215659618530273,1.6000000238418581,5.012169618530273,1.600000023841858,4.799999618530274C1.600000023841858,4.799999618530274,1.600000023841858,3.1999996185302733,1.600000023841858,3.1999996185302733C1.600000023841858,3.1999996185302733,1.600000023841858,3.1999996185302733,1.600000023841858,3.1999996185302733ZM3.200000023841858,5.599999618530274C3.200000023841858,5.599999618530274,3.200000023841858,11.599999618530273,3.200000023841858,11.599999618530273C3.200000023841858,11.918269618530273,3.3264300238418576,12.223489618530273,3.551470023841858,12.448499618530274C3.776520023841858,12.673599618530274,4.081740023841858,12.799999618530274,4.400000023841858,12.799999618530274C4.400000023841858,12.799999618530274,11.600000023841858,12.799999618530274,11.600000023841858,12.799999618530274C11.918300023841859,12.799999618530274,12.223500023841858,12.673599618530274,12.448500023841857,12.448499618530274C12.673600023841859,12.223489618530273,12.800000023841857,11.918269618530273,12.800000023841857,11.599999618530273C12.800000023841857,11.599999618530273,12.800000023841857,5.599999618530274,12.800000023841857,5.599999618530274C12.800000023841857,5.599999618530274,3.200000023841858,5.599999618530274,3.200000023841858,5.599999618530274C3.200000023841858,5.599999618530274,3.200000023841858,5.599999618530274,3.200000023841858,5.599999618530274ZM13.600000023841858,3.1999996185302733C13.600000023841858,3.1999996185302733,2.4000000238418577,3.1999996185302733,2.4000000238418577,3.1999996185302733C2.4000000238418577,3.1999996185302733,2.4000000238418577,4.799999618530274,2.4000000238418577,4.799999618530274C2.4000000238418577,4.799999618530274,13.600000023841858,4.799999618530274,13.600000023841858,4.799999618530274C13.600000023841858,4.799999618530274,13.600000023841858,3.1999996185302733,13.600000023841858,3.1999996185302733C13.600000023841858,3.1999996185302733,13.600000023841858,3.1999996185302733,13.600000023841858,3.1999996185302733ZM5.600000023841858,7.599999618530274C5.600000023841858,7.493919618530273,5.642140023841858,7.392159618530274,5.7171500238418576,7.317149618530274C5.792160023841858,7.242139618530273,5.893920023841858,7.199999618530273,6.000000023841858,7.199999618530273C6.000000023841858,7.199999618530273,10.000000023841858,7.199999618530273,10.000000023841858,7.199999618530273C10.106080023841859,7.199999618530273,10.207840023841857,7.242139618530273,10.282850023841858,7.317149618530274C10.357860023841859,7.392159618530274,10.400000023841859,7.493919618530273,10.400000023841859,7.599999618530274C10.400000023841859,7.706079618530273,10.357860023841859,7.807839618530274,10.282850023841858,7.882849618530273C10.207840023841857,7.957859618530273,10.106080023841859,7.999999618530273,10.000000023841858,7.999999618530273C10.000000023841858,7.999999618530273,6.000000023841858,7.999999618530273,6.000000023841858,7.999999618530273C5.893920023841858,7.999999618530273,5.792160023841858,7.957859618530273,5.7171500238418576,7.882849618530273C5.642140023841858,7.807839618530274,5.600000023841858,7.706079618530273,5.600000023841858,7.599999618530274C5.600000023841858,7.599999618530274,5.600000023841858,7.599999618530274,5.600000023841858,7.599999618530274Z" fill="#10B981" fill-opacity="1"/></g></g></g></g></g></svg>