<svg xmlns="http://www.w3.org/2000/svg" xmlns:xlink="http://www.w3.org/1999/xlink" fill="none" version="1.1" width="24" height="24" viewBox="0 0 24 24"><clipPath id="master_svg0_16_3461/0_6733"><rect x="0" y="0" width="24" height="24" rx="0"/></clipPath><g clip-path="url(#master_svg0_16_3461/0_6733)" style="mix-blend-mode:passthrough"><g><g style="mix-blend-mode:passthrough"><g><g style="mix-blend-mode:passthrough"><path d="M6.240000171661377,8.800117282867431C6.070260171661377,8.800117282867431,5.907480171661377,8.86754728286743,5.787450171661376,8.987567282867431C5.667430171661377,9.107597282867431,5.600000171661377,9.270377282867432,5.600000171661377,9.440117282867432C5.600000171661377,9.440117282867432,5.600000171661377,19.680117282867432,5.600000171661377,19.680117282867432C5.600000171661377,19.84991728286743,5.667430171661377,20.01261728286743,5.787450171661376,20.132617282867432C5.907480171661377,20.25271728286743,6.070260171661377,20.320117282867432,6.240000171661377,20.320117282867432C6.240000171661377,20.320117282867432,17.760000171661375,20.320117282867432,17.760000171661375,20.320117282867432C17.929700171661377,20.320117282867432,18.092500171661378,20.25271728286743,18.212500171661375,20.132617282867432C18.332600171661376,20.01261728286743,18.400000171661375,19.84991728286743,18.400000171661375,19.680117282867432C18.400000171661375,19.680117282867432,18.400000171661375,9.440117282867432,18.400000171661375,9.440117282867432C18.400000171661375,9.270377282867432,18.332600171661376,9.107597282867431,18.212500171661375,8.987567282867431C18.092500171661378,8.86754728286743,17.929700171661377,8.800117282867431,17.760000171661375,8.800117282867431C17.760000171661375,8.800117282867431,15.200000171661378,8.800117282867431,15.200000171661378,8.800117282867431C15.030200171661377,8.800117282867431,14.867500171661376,8.732687282867431,14.747500171661377,8.61266728286743C14.627400171661376,8.492640282867432,14.560000171661377,8.329858282867432,14.560000171661377,8.160115282867432C14.560000171661377,7.9903782828674315,14.627400171661376,7.827592282867432,14.747500171661377,7.707569282867432C14.867500171661376,7.587545782867432,15.030200171661377,7.520117282867432,15.200000171661378,7.520117282867432C15.200000171661378,7.520117282867432,17.760000171661375,7.520117282867432,17.760000171661375,7.520117282867432C18.269200171661375,7.520117282867432,18.757600171661377,7.7224022828674315,19.117600171661376,8.08247128286743C19.477700171661375,8.442543282867431,19.680000171661376,8.93089728286743,19.680000171661376,9.440117282867432C19.680000171661376,9.440117282867432,19.680000171661376,19.680117282867432,19.680000171661376,19.680117282867432C19.680000171661376,20.18931728286743,19.477700171661375,20.677717282867434,19.117600171661376,21.03781728286743C18.757600171661377,21.397817282867432,18.269200171661375,21.60011728286743,17.760000171661375,21.60011728286743C17.760000171661375,21.60011728286743,6.240000171661377,21.60011728286743,6.240000171661377,21.60011728286743C5.730780171661377,21.60011728286743,5.242426171661377,21.397817282867432,4.882354171661377,21.03781728286743C4.522285171661377,20.677717282867434,4.320000171661378,20.18931728286743,4.320000171661377,19.680117282867432C4.320000171661377,19.680117282867432,4.320000171661377,9.440117282867432,4.320000171661377,9.440117282867432C4.320000171661377,8.93089728286743,4.522285171661377,8.442543282867431,4.882354171661377,8.08247128286743C5.242426171661377,7.7224022828674315,5.730780171661377,7.5201172828674325,6.240000171661377,7.520117282867432C6.240000171661377,7.520117282867432,8.800000171661377,7.520117282867432,8.800000171661377,7.520117282867432C8.969740171661378,7.520117282867432,9.132530171661376,7.587545782867432,9.252530171661377,7.707569282867432C9.372580171661376,7.827592282867432,9.440020171661377,7.9903782828674315,9.440020171661377,8.160115282867432C9.440020171661377,8.329858282867432,9.372580171661376,8.492640282867432,9.252530171661377,8.61266728286743C9.132530171661376,8.732687282867431,8.969740171661378,8.800117282867431,8.800000171661377,8.800117282867431C8.800000171661377,8.800117282867431,6.240000171661377,8.800117282867431,6.240000171661377,8.800117282867431C6.240000171661377,8.800117282867431,6.240000171661377,8.800117282867431,6.240000171661377,8.800117282867431Z" fill-rule="evenodd" fill="#000000" fill-opacity="1"/></g><g style="mix-blend-mode:passthrough"><path d="M11.546908921661377,16.293100095367432C11.606358921661377,16.35270009536743,11.676978921661377,16.40000009536743,11.754728921661377,16.43230009536743C11.832488921661376,16.464500095367434,11.915848921661377,16.48110009536743,12.000028921661377,16.48110009536743C12.084208921661377,16.48110009536743,12.167558921661378,16.464500095367434,12.245318921661376,16.43230009536743C12.323058921661378,16.40000009536743,12.393718921661378,16.35270009536743,12.453138921661377,16.293100095367432C12.453138921661377,16.293100095367432,16.293138921661377,12.453100095367432,16.293138921661377,12.453100095367432C16.413328921661375,12.332930095367432,16.480818921661378,12.169970095367432,16.480818921661378,12.000000095367431C16.480818921661378,11.830030095367432,16.413328921661375,11.667070095367432,16.293138921661377,11.546880095367431C16.17298892166138,11.426690095367432,16.009988921661375,11.35920009536743,15.840018921661377,11.35920009536743C15.670048921661376,11.35920009536743,15.507088921661378,11.426690095367432,15.386898921661377,11.546880095367431C15.386898921661377,11.546880095367431,12.640048921661377,14.295000095367431,12.640048921661377,14.295000095367431C12.640048921661377,14.295000095367431,12.640048921661377,3.0399980953674315,12.640048921661377,3.0399980953674315C12.640048921661377,2.8702610953674315,12.572608921661377,2.707475095367432,12.452558921661378,2.5874520953674316C12.332558921661377,2.4674285953674318,12.169768921661376,2.400000095367432,12.000028921661377,2.4000000953674316C11.830288921661378,2.400000095367432,11.667498921661377,2.4674285953674318,11.547478921661376,2.5874520953674316C11.427458921661376,2.707475095367432,11.360028921661376,2.8702610953674315,11.360028921661376,3.0399980953674315C11.360028921661376,3.0399980953674315,11.360028921661376,14.295000095367431,11.360028921661376,14.295000095367431C11.360028921661376,14.295000095367431,8.613148921661377,11.546880095367431,8.613148921661377,11.546880095367431C8.492970921661376,11.426690095367432,8.329981921661377,11.35920009536743,8.160027921661378,11.35920009536743C7.990073921661377,11.35920009536743,7.827081921661377,11.426690095367432,7.706907921661377,11.546880095367431C7.586732821661377,11.667070095367432,7.519218921661377,11.830030095367432,7.519218921661377,12.000000095367431C7.519218921661377,12.169970095367432,7.586732821661377,12.332930095367432,7.706907921661377,12.453100095367432C7.706907921661377,12.453100095367432,11.546908921661377,16.293100095367432,11.546908921661377,16.293100095367432C11.546908921661377,16.293100095367432,11.546908921661377,16.293100095367432,11.546908921661377,16.293100095367432C11.546908921661377,16.293100095367432,11.546908921661377,16.293100095367432,11.546908921661377,16.293100095367432Z" fill-rule="evenodd" fill="#000000" fill-opacity="1"/></g></g></g></g></g></svg>