<svg xmlns="http://www.w3.org/2000/svg" xmlns:xlink="http://www.w3.org/1999/xlink" fill="none" version="1.1" width="16" height="16" viewBox="0 0 16 16"><clipPath id="master_svg0_16_3091/0_2805/0_5173"><rect x="0" y="0" width="16" height="16" rx="0"/></clipPath><g clip-path="url(#master_svg0_16_3091/0_2805/0_5173)" style="mix-blend-mode:passthrough"><g><g style="mix-blend-mode:passthrough"><g><g style="mix-blend-mode:passthrough"><path d="M1.600000023841858,8.479999885559081C1.600000023841858,8.352699885559081,1.644952323841858,8.230609885559081,1.7249680238418579,8.140589885559082C1.8049830238418578,8.050569885559081,1.913508023841858,7.999999885559082,2.026667023841858,7.999999885559082C2.026667023841858,7.999999885559082,3.733330023841858,7.999999885559082,3.733330023841858,7.999999885559082C3.846490023841858,7.999999885559082,3.955020023841858,8.050569885559081,4.035030023841857,8.140589885559082C4.115050023841858,8.230609885559081,4.160000023841858,8.352699885559081,4.160000023841858,8.479999885559081C4.160000023841858,8.479999885559081,4.160000023841858,10.399999885559083,4.160000023841858,10.399999885559083C4.160000023841858,10.527299885559081,4.115050023841858,10.649389885559081,4.035030023841857,10.739409885559082C3.955020023841858,10.829429885559083,3.846490023841858,10.879999885559082,3.733330023841858,10.879999885559082C3.733330023841858,10.879999885559082,2.026667023841858,10.879999885559082,2.026667023841858,10.879999885559082C1.913508023841858,10.879999885559082,1.8049830238418578,10.829429885559083,1.7249680238418579,10.739409885559082C1.644952323841858,10.649389885559081,1.600000023841858,10.527299885559081,1.600000023841858,10.399999885559083C1.600000023841858,10.399999885559083,1.600000023841858,8.479999885559081,1.600000023841858,8.479999885559081C1.600000023841858,8.479999885559081,1.600000023841858,8.479999885559081,1.600000023841858,8.479999885559081ZM5.013330023841858,5.5999998855590825C5.013330023841858,5.472695885559082,5.058290023841858,5.350605885559082,5.1383000238418575,5.260587885559082C5.218320023841859,5.170570785559082,5.326840023841858,5.119999885559082,5.440000023841858,5.119999885559082C5.440000023841858,5.119999885559082,7.146670023841858,5.119999885559082,7.146670023841858,5.119999885559082C7.259830023841858,5.119999885559082,7.368350023841858,5.170570785559082,7.448370023841858,5.260587885559082C7.528380023841858,5.350605885559082,7.573330023841858,5.472695885559082,7.573330023841858,5.5999998855590825C7.573330023841858,5.5999998855590825,7.573330023841858,10.399999885559083,7.573330023841858,10.399999885559083C7.573330023841858,10.527299885559081,7.528380023841858,10.649389885559081,7.448370023841858,10.739409885559082C7.368350023841858,10.829429885559083,7.259830023841858,10.879999885559082,7.146670023841858,10.879999885559082C7.146670023841858,10.879999885559082,5.440000023841858,10.879999885559082,5.440000023841858,10.879999885559082C5.326840023841858,10.879999885559082,5.218320023841859,10.829429885559083,5.1383000238418575,10.739409885559082C5.058290023841858,10.649389885559081,5.013330023841858,10.527299885559081,5.013330023841858,10.399999885559083C5.013330023841858,10.399999885559083,5.013330023841858,5.5999998855590825,5.013330023841858,5.5999998855590825C5.013330023841858,5.5999998855590825,5.013330023841858,5.5999998855590825,5.013330023841858,5.5999998855590825ZM8.426670023841858,10.399999885559083C8.426670023841858,10.272699885559081,8.471620023841858,10.150609885559081,8.551630023841858,10.060589885559082C8.631650023841857,9.970569885559083,8.74017002384186,9.919999885559083,8.853330023841858,9.919999885559083C8.853330023841858,9.919999885559083,10.560000023841859,9.919999885559083,10.560000023841859,9.919999885559083C10.673160023841858,9.919999885559083,10.781680023841858,9.970569885559083,10.861700023841857,10.060589885559082C10.941710023841859,10.150609885559081,10.986670023841858,10.272699885559081,10.986670023841858,10.399999885559083C10.986670023841858,10.527299885559081,10.941710023841859,10.649389885559081,10.861700023841857,10.739409885559082C10.781680023841858,10.829429885559083,10.673160023841858,10.879999885559082,10.560000023841859,10.879999885559082C10.560000023841859,10.879999885559082,8.853330023841858,10.879999885559082,8.853330023841858,10.879999885559082C8.74017002384186,10.879999885559082,8.631650023841857,10.829429885559083,8.551630023841858,10.739409885559082C8.471620023841858,10.649389885559081,8.426670023841858,10.527299885559081,8.426670023841858,10.399999885559083C8.426670023841858,10.399999885559083,8.426670023841858,10.399999885559083,8.426670023841858,10.399999885559083ZM11.840000023841858,10.399999885559083C11.840000023841858,10.272699885559081,11.885000023841858,10.150609885559081,11.965000023841858,10.060589885559082C12.045000023841858,9.970569885559083,12.153500023841858,9.919999885559083,12.266700023841858,9.919999885559083C12.266700023841858,9.919999885559083,13.973300023841858,9.919999885559083,13.973300023841858,9.919999885559083C14.086500023841857,9.919999885559083,14.195000023841859,9.970569885559083,14.275000023841859,10.060589885559082C14.355000023841859,10.150609885559081,14.400000023841859,10.272699885559081,14.400000023841859,10.399999885559083C14.400000023841859,10.527299885559081,14.355000023841859,10.649389885559081,14.275000023841859,10.739409885559082C14.195000023841859,10.829429885559083,14.086500023841857,10.879999885559082,13.973300023841858,10.879999885559082C13.973300023841858,10.879999885559082,12.266700023841858,10.879999885559082,12.266700023841858,10.879999885559082C12.153500023841858,10.879999885559082,12.045000023841858,10.829429885559083,11.965000023841858,10.739409885559082C11.885000023841858,10.649389885559081,11.840000023841858,10.527299885559081,11.840000023841858,10.399999885559083C11.840000023841858,10.399999885559083,11.840000023841858,10.399999885559083,11.840000023841858,10.399999885559083Z" fill="#FFFFFF" fill-opacity="1"/></g></g></g></g></g></svg>