<svg xmlns="http://www.w3.org/2000/svg" xmlns:xlink="http://www.w3.org/1999/xlink" fill="none" version="1.1" width="24" height="24" viewBox="0 0 24 24"><clipPath id="master_svg0_16_3553"><rect x="0" y="0" width="24" height="24" rx="0"/></clipPath><g clip-path="url(#master_svg0_16_3553)" style="mix-blend-mode:passthrough"><g><g style="mix-blend-mode:passthrough"><g><g style="mix-blend-mode:passthrough"><path d="M8.800014427642822,16.04998912811279C8.800014427642822,15.837789128112792,8.884304427642823,15.634329128112793,9.034354427642821,15.484289128112794C9.184354427642823,15.334289128112793,9.387874427642823,15.249999128112792,9.600034427642822,15.249999128112792C9.600034427642822,15.249999128112792,14.400034427642822,15.249999128112792,14.400034427642822,15.249999128112792C14.612234427642822,15.249999128112792,14.815634427642822,15.334289128112793,14.965734427642822,15.484289128112794C15.115734427642822,15.634329128112793,15.200034427642823,15.837789128112792,15.200034427642823,16.04998912811279C15.200034427642823,16.262189128112794,15.115734427642822,16.465689128112793,14.965734427642822,16.61568912811279C14.815634427642822,16.765689128112793,14.612234427642822,16.849989128112792,14.400034427642822,16.849989128112792C14.400034427642822,16.849989128112792,9.600034427642822,16.849989128112792,9.600034427642822,16.849989128112792C9.387874427642823,16.849989128112792,9.184354427642823,16.765689128112793,9.034354427642821,16.61568912811279C8.884304427642823,16.465689128112793,8.800014427642822,16.262189128112794,8.800014427642822,16.04998912811279C8.800014427642822,16.04998912811279,8.800014427642822,16.04998912811279,8.800014427642822,16.04998912811279ZM5.600034427642822,11.250009128112794C5.600034427642822,11.037799128112793,5.684314427642822,10.834329128112792,5.834344427642822,10.684279128112793C5.984374427642822,10.534279128112793,6.187854427642822,10.449989128112794,6.400034427642822,10.449989128112794C6.400034427642822,10.449989128112794,17.60003442764282,10.449989128112794,17.60003442764282,10.449989128112794C17.81223442764282,10.449989128112794,18.015634427642823,10.534279128112793,18.16563442764282,10.684279128112793C18.315734427642823,10.834329128112792,18.400034427642822,11.037799128112793,18.400034427642822,11.250009128112794C18.400034427642822,11.462169128112793,18.315734427642823,11.665639128112794,18.16563442764282,11.815689128112794C18.015634427642823,11.965689128112793,17.81223442764282,12.049979128112792,17.60003442764282,12.049979128112792C17.60003442764282,12.049979128112792,6.400034427642822,12.049979128112792,6.400034427642822,12.049979128112792C6.187854427642822,12.049979128112792,5.984374427642822,11.965689128112793,5.834344427642822,11.815689128112794C5.684314427642822,11.665639128112794,5.600034427642822,11.462169128112793,5.600034427642822,11.250009128112794C5.600034427642822,11.250009128112794,5.600034427642822,11.250009128112794,5.600034427642822,11.250009128112794ZM2.4000344276428223,6.449991128112793C2.4000344276428223,6.237817128112793,2.484320027642822,6.034333128112793,2.634348427642822,5.884304128112793C2.7843784276428223,5.734274828112793,2.987861427642822,5.649989128112792,3.2000364276428224,5.649989128112793C3.2000364276428224,5.649989128112793,20.80003442764282,5.649989128112793,20.80003442764282,5.649989128112793C21.012134427642824,5.649989128112792,21.215634427642822,5.734274828112793,21.36573442764282,5.884304128112793C21.515734427642823,6.034333128112793,21.60003442764282,6.237817128112793,21.60003442764282,6.449991128112793C21.60003442764282,6.662159128112793,21.515734427642823,6.865639128112793,21.36573442764282,7.015679128112793C21.215634427642822,7.165709128112793,21.012134427642824,7.249989128112793,20.80003442764282,7.249989128112793C20.80003442764282,7.249989128112793,3.2000364276428224,7.249989128112793,3.2000364276428224,7.249989128112793C2.987861427642822,7.249989128112793,2.7843784276428223,7.165709128112793,2.634348427642822,7.015679128112793C2.484320027642822,6.865639128112793,2.4000344276428223,6.662159128112793,2.4000344276428223,6.449991128112793C2.4000344276428223,6.449991128112793,2.4000344276428223,6.449991128112793,2.4000344276428223,6.449991128112793Z" fill="#000000" fill-opacity="1"/></g></g></g></g></g></svg>