<svg xmlns="http://www.w3.org/2000/svg" xmlns:xlink="http://www.w3.org/1999/xlink" fill="none" version="1.1" width="12.800010681152344" height="11.997761726379395" viewBox="0 0 12.800010681152344 11.997761726379395"><g style="mix-blend-mode:passthrough"><path d="M2.29168,11.4779C2.22928,11.833,2.57968,12.1105,2.88847,11.9522C2.88847,11.9522,6.40042,10.1478,6.40042,10.1478C6.40042,10.1478,9.91156,11.9522,9.91156,11.9522C10.2204,12.1105,10.5707,11.833,10.5083,11.4787C10.5083,11.4787,9.84436,7.69568,9.84436,7.69568C9.84436,7.69568,12.6619,5.01159,12.6619,5.01159C12.9259,4.76045,12.7899,4.30138,12.4363,4.25181C12.4363,4.25181,8.51799,3.69514,8.51799,3.69514C8.51799,3.69514,6.77082,0.234454,6.77082,0.234454C6.73751,0.164303,6.68503,0.105034,6.61936,0.0635322C6.55373,0.0220306,6.47767,1.33192e-16,6.4,0C6.32234,1.33192e-16,6.24627,0.0220306,6.18064,0.0635322C6.11501,0.105034,6.0625,0.164303,6.02922,0.234454C6.02922,0.234454,4.28205,3.69594,4.28205,3.69594C4.28205,3.69594,0.363715,4.25261,0.363715,4.25261C0.0109225,4.30218,-0.125875,4.76125,0.13732,5.01239C0.13732,5.01239,2.95567,7.69648,2.95567,7.69648C2.95567,7.69648,2.29168,11.4795,2.29168,11.4795C2.29168,11.4795,2.29168,11.4779,2.29168,11.4779C2.29168,11.4779,2.29168,11.4779,2.29168,11.4779ZM6.21562,9.26487C6.21562,9.26487,3.26688,10.7797,3.26688,10.7797C3.26688,10.7797,3.82205,7.61491,3.82205,7.61491C3.83507,7.54205,3.82999,7.46714,3.80723,7.39671C3.78451,7.32627,3.7448,7.26253,3.69165,7.21101C3.69165,7.21101,1.3669,4.99562,1.3669,4.99562C1.3669,4.99562,4.60845,4.53491,4.60845,4.53491C4.67555,4.5248,4.73923,4.49853,4.79399,4.45843C4.84874,4.41831,4.89296,4.36554,4.92285,4.30458C4.92285,4.30458,6.39882,1.37895,6.39882,1.37895C6.39882,1.37895,7.87639,4.30458,7.87639,4.30458C7.90628,4.36554,7.95047,4.41831,8.00525,4.45843C8.06,4.49853,8.12365,4.5248,8.19079,4.53491C8.19079,4.53491,11.4323,4.99482,11.4323,4.99482C11.4323,4.99482,9.10756,7.21021,9.10756,7.21021C9.05428,7.26179,9.01453,7.3257,8.99178,7.39629C8.96903,7.46685,8.96404,7.54195,8.97716,7.61491C8.97716,7.61491,9.53236,10.7797,9.53236,10.7797C9.53236,10.7797,6.58362,9.26487,6.58362,9.26487C6.52659,9.23549,6.46336,9.22016,6.3992,9.22016C6.33504,9.22016,6.27184,9.23549,6.21482,9.26487C6.21482,9.26487,6.21562,9.26487,6.21562,9.26487C6.21562,9.26487,6.21562,9.26487,6.21562,9.26487Z" fill="#D1D5DB" fill-opacity="1"/></g></svg>