<svg xmlns="http://www.w3.org/2000/svg" xmlns:xlink="http://www.w3.org/1999/xlink" fill="none" version="1.1" width="12.800000190734863" height="11.200000762939453" viewBox="0 0 12.800000190734863 11.200000762939453"><g style="mix-blend-mode:passthrough"><path d="M0,0.8C3.88579e-17,0.587827,0.0842854,0.384342,0.234315,0.234315C0.384342,0.0842854,0.587827,1.77636e-16,0.8,0C0.8,0,12,0,12,0C12.2122,1.77636e-16,12.4156,0.0842854,12.5657,0.234315C12.7157,0.384342,12.8,0.587827,12.8,0.8C12.8,0.8,12.8,2.4,12.8,2.4C12.8,2.61217,12.7157,2.81566,12.5657,2.96569C12.4156,3.11572,12.2122,3.2,12,3.2C12,3.2,12,9.2,12,9.2C12,9.73043,11.7893,10.2391,11.4142,10.6142C11.0391,10.9893,10.5304,11.2,10,11.2C10,11.2,2.8,11.2,2.8,11.2C2.26957,11.2,1.76086,10.9893,1.38579,10.6142C1.01071,10.2391,0.8,9.73043,0.8,9.2C0.8,9.2,0.8,3.2,0.8,3.2C0.587827,3.2,0.384342,3.11572,0.234315,2.96569C0.0842854,2.81566,1.16573e-16,2.61217,0,2.4C0,2.4,0,0.8,0,0.8C0,0.8,0,0.8,0,0.8ZM1.6,3.2C1.6,3.2,1.6,9.2,1.6,9.2C1.6,9.51827,1.72643,9.82349,1.95147,10.0485C2.17652,10.2736,2.48174,10.4,2.8,10.4C2.8,10.4,10,10.4,10,10.4C10.3183,10.4,10.6235,10.2736,10.8485,10.0485C11.0736,9.82349,11.2,9.51827,11.2,9.2C11.2,9.2,11.2,3.2,11.2,3.2C11.2,3.2,1.6,3.2,1.6,3.2C1.6,3.2,1.6,3.2,1.6,3.2ZM12,0.8C12,0.8,0.8,0.8,0.8,0.8C0.8,0.8,0.8,2.4,0.8,2.4C0.8,2.4,12,2.4,12,2.4C12,2.4,12,0.8,12,0.8C12,0.8,12,0.8,12,0.8ZM4,5.2C4,5.09392,4.04214,4.99216,4.11715,4.91715C4.19216,4.84214,4.29392,4.8,4.4,4.8C4.4,4.8,8.4,4.8,8.4,4.8C8.50608,4.8,8.60784,4.84214,8.68285,4.91715C8.75786,4.99216,8.8,5.09392,8.8,5.2C8.8,5.30608,8.75786,5.40784,8.68285,5.48285C8.60784,5.55786,8.50608,5.6,8.4,5.6C8.4,5.6,4.4,5.6,4.4,5.6C4.29392,5.6,4.19216,5.55786,4.11715,5.48285C4.04214,5.40784,4,5.30608,4,5.2C4,5.2,4,5.2,4,5.2Z" fill="#10B981" fill-opacity="1"/></g></svg>