<svg xmlns="http://www.w3.org/2000/svg" xmlns:xlink="http://www.w3.org/1999/xlink" fill="none" version="1.1" width="16" height="16" viewBox="0 0 16 16"><clipPath id="master_svg0_16_1563/0_2779"><rect x="0" y="0" width="16" height="16" rx="0"/></clipPath><g clip-path="url(#master_svg0_16_1563/0_2779)" style="mix-blend-mode:passthrough"><g><g style="mix-blend-mode:passthrough"><g><g style="mix-blend-mode:passthrough"></g><g style="mix-blend-mode:passthrough"><path d="M2.7200144827365875,3.6598426401615143C2.4438724827365874,3.6598426401615143,2.2200144827365875,3.883700640161514,2.2200144827365875,4.159842640161514C2.2200144827365875,4.435984640161514,2.4438724827365874,4.659842640161514,2.7200144827365875,4.659842640161514C2.7200144827365875,4.659842640161514,2.7200144827365875,3.6598426401615143,2.7200144827365875,3.6598426401615143C2.7200144827365875,3.6598426401615143,2.7200144827365875,3.6598426401615143,2.7200144827365875,3.6598426401615143ZM13.280014482736588,4.659842640161514C13.556114482736588,4.659842640161514,13.780014482736588,4.435984640161514,13.780014482736588,4.159842640161514C13.780014482736588,3.883700640161514,13.556114482736588,3.6598426401615143,13.280014482736588,3.6598426401615143C13.280014482736588,3.6598426401615143,13.280014482736588,4.659842640161514,13.280014482736588,4.659842640161514C13.280014482736588,4.659842640161514,13.280014482736588,4.659842640161514,13.280014482736588,4.659842640161514ZM2.7200144827365875,4.659842640161514C2.7200144827365875,4.659842640161514,13.280014482736588,4.659842640161514,13.280014482736588,4.659842640161514C13.280014482736588,4.659842640161514,13.280014482736588,3.6598426401615143,13.280014482736588,3.6598426401615143C13.280014482736588,3.6598426401615143,2.7200144827365875,3.6598426401615143,2.7200144827365875,3.6598426401615143C2.7200144827365875,3.6598426401615143,2.7200144827365875,4.659842640161514,2.7200144827365875,4.659842640161514C2.7200144827365875,4.659842640161514,2.7200144827365875,4.659842640161514,2.7200144827365875,4.659842640161514Z" fill="#10B981" fill-opacity="1"/></g><g style="mix-blend-mode:passthrough"><path d="M2.7200144827365875,7.500000149011612C2.4438724827365874,7.500000149011612,2.2200144827365875,7.723858149011612,2.2200144827365875,8.000000149011612C2.2200144827365875,8.276142149011612,2.4438724827365874,8.500000149011612,2.7200144827365875,8.500000149011612C2.7200144827365875,8.500000149011612,2.7200144827365875,7.500000149011612,2.7200144827365875,7.500000149011612C2.7200144827365875,7.500000149011612,2.7200144827365875,7.500000149011612,2.7200144827365875,7.500000149011612ZM13.280014482736588,8.500000149011612C13.556114482736588,8.500000149011612,13.780014482736588,8.276142149011612,13.780014482736588,8.000000149011612C13.780014482736588,7.723858149011612,13.556114482736588,7.500000149011612,13.280014482736588,7.500000149011612C13.280014482736588,7.500000149011612,13.280014482736588,8.500000149011612,13.280014482736588,8.500000149011612C13.280014482736588,8.500000149011612,13.280014482736588,8.500000149011612,13.280014482736588,8.500000149011612ZM2.7200144827365875,8.500000149011612C2.7200144827365875,8.500000149011612,13.280014482736588,8.500000149011612,13.280014482736588,8.500000149011612C13.280014482736588,8.500000149011612,13.280014482736588,7.500000149011612,13.280014482736588,7.500000149011612C13.280014482736588,7.500000149011612,2.7200144827365875,7.500000149011612,2.7200144827365875,7.500000149011612C2.7200144827365875,7.500000149011612,2.7200144827365875,8.500000149011612,2.7200144827365875,8.500000149011612C2.7200144827365875,8.500000149011612,2.7200144827365875,8.500000149011612,2.7200144827365875,8.500000149011612Z" fill="#10B981" fill-opacity="1"/></g><g style="mix-blend-mode:passthrough"><path d="M2.7200144827365875,11.340000301599503C2.4438724827365874,11.340000301599503,2.2200144827365875,11.563858301599502,2.2200144827365875,11.840000301599503C2.2200144827365875,12.116142301599503,2.4438724827365874,12.340000301599503,2.7200144827365875,12.340000301599503C2.7200144827365875,12.340000301599503,2.7200144827365875,11.340000301599503,2.7200144827365875,11.340000301599503C2.7200144827365875,11.340000301599503,2.7200144827365875,11.340000301599503,2.7200144827365875,11.340000301599503ZM8.960014482736588,12.340000301599503C9.236154482736588,12.340000301599503,9.460014482736588,12.116142301599503,9.460014482736588,11.840000301599503C9.460014482736588,11.563858301599502,9.236154482736588,11.340000301599503,8.960014482736588,11.340000301599503C8.960014482736588,11.340000301599503,8.960014482736588,12.340000301599503,8.960014482736588,12.340000301599503C8.960014482736588,12.340000301599503,8.960014482736588,12.340000301599503,8.960014482736588,12.340000301599503ZM2.7200144827365875,12.340000301599503C2.7200144827365875,12.340000301599503,8.960014482736588,12.340000301599503,8.960014482736588,12.340000301599503C8.960014482736588,12.340000301599503,8.960014482736588,11.340000301599503,8.960014482736588,11.340000301599503C8.960014482736588,11.340000301599503,2.7200144827365875,11.340000301599503,2.7200144827365875,11.340000301599503C2.7200144827365875,11.340000301599503,2.7200144827365875,12.340000301599503,2.7200144827365875,12.340000301599503C2.7200144827365875,12.340000301599503,2.7200144827365875,12.340000301599503,2.7200144827365875,12.340000301599503Z" fill="#10B981" fill-opacity="1"/></g><g style="mix-blend-mode:passthrough"><path d="M11.360006481409073,11.340000301599503C11.083864481409073,11.340000301599503,10.860006481409073,11.563858301599502,10.860006481409073,11.840000301599503C10.860006481409073,12.116142301599503,11.083864481409073,12.340000301599503,11.360006481409073,12.340000301599503C11.360006481409073,12.340000301599503,11.360006481409073,11.340000301599503,11.360006481409073,11.340000301599503C11.360006481409073,11.340000301599503,11.360006481409073,11.340000301599503,11.360006481409073,11.340000301599503ZM14.240006481409072,12.340000301599503C14.516146481409073,12.340000301599503,14.740006481409072,12.116142301599503,14.740006481409072,11.840000301599503C14.740006481409072,11.563858301599502,14.516146481409073,11.340000301599503,14.240006481409072,11.340000301599503C14.240006481409072,11.340000301599503,14.240006481409072,12.340000301599503,14.240006481409072,12.340000301599503C14.240006481409072,12.340000301599503,14.240006481409072,12.340000301599503,14.240006481409072,12.340000301599503ZM11.360006481409073,12.340000301599503C11.360006481409073,12.340000301599503,14.240006481409072,12.340000301599503,14.240006481409072,12.340000301599503C14.240006481409072,12.340000301599503,14.240006481409072,11.340000301599503,14.240006481409072,11.340000301599503C14.240006481409072,11.340000301599503,11.360006481409073,11.340000301599503,11.360006481409073,11.340000301599503C11.360006481409073,11.340000301599503,11.360006481409073,12.340000301599503,11.360006481409073,12.340000301599503C11.360006481409073,12.340000301599503,11.360006481409073,12.340000301599503,11.360006481409073,12.340000301599503Z" fill="#10B981" fill-opacity="1"/></g><g style="mix-blend-mode:passthrough"><path d="M13.300018459558487,10.399832874536514C13.300018459558487,10.123690874536514,13.076160459558487,9.899832874536514,12.800018459558487,9.899832874536514C12.523876459558487,9.899832874536514,12.300018459558487,10.123690874536514,12.300018459558487,10.399832874536514C12.300018459558487,10.399832874536514,13.300018459558487,10.399832874536514,13.300018459558487,10.399832874536514C13.300018459558487,10.399832874536514,13.300018459558487,10.399832874536514,13.300018459558487,10.399832874536514ZM12.300018459558487,13.279832874536513C12.300018459558487,13.555972874536515,12.523876459558487,13.779832874536513,12.800018459558487,13.779832874536513C13.076160459558487,13.779832874536513,13.300018459558487,13.555972874536515,13.300018459558487,13.279832874536513C13.300018459558487,13.279832874536513,12.300018459558487,13.279832874536513,12.300018459558487,13.279832874536513C12.300018459558487,13.279832874536513,12.300018459558487,13.279832874536513,12.300018459558487,13.279832874536513ZM12.300018459558487,10.399832874536514C12.300018459558487,10.399832874536514,12.300018459558487,13.279832874536513,12.300018459558487,13.279832874536513C12.300018459558487,13.279832874536513,13.300018459558487,13.279832874536513,13.300018459558487,13.279832874536513C13.300018459558487,13.279832874536513,13.300018459558487,10.399832874536514,13.300018459558487,10.399832874536514C13.300018459558487,10.399832874536514,12.300018459558487,10.399832874536514,12.300018459558487,10.399832874536514C12.300018459558487,10.399832874536514,12.300018459558487,10.399832874536514,12.300018459558487,10.399832874536514Z" fill="#10B981" fill-opacity="1"/></g></g></g></g></g></svg>