<svg xmlns="http://www.w3.org/2000/svg" xmlns:xlink="http://www.w3.org/1999/xlink" fill="none" version="1.1" width="11.994012832641602" height="14" viewBox="0 0 11.994012832641602 14"><g style="mix-blend-mode:passthrough"><path d="M6.66368,6C6.66368,6,10.6297,12.344,10.6297,12.344C10.6495,12.3759,10.6604,12.4126,10.6613,12.4501C10.6622,12.4877,10.6531,12.5248,10.6349,12.5577C10.6167,12.5906,10.5901,12.618,10.5578,12.6372C10.5254,12.6563,10.4886,12.6665,10.451,12.6667C10.451,12.6667,1.54301,12.6667,1.54301,12.6667C1.50524,12.6665,1.46821,12.6562,1.43577,12.6368C1.40334,12.6175,1.37668,12.5898,1.35858,12.5566C1.34047,12.5235,1.33158,12.4861,1.33283,12.4484C1.33408,12.4106,1.34542,12.3739,1.36567,12.342C1.36567,12.342,5.33034,6,5.33034,6C5.33034,6,5.33034,1.33333,5.33034,1.33333C5.33034,1.33333,6.66368,1.33333,6.66368,1.33333C6.66368,1.33333,6.66368,6,6.66368,6C6.66368,6,6.66368,6,6.66368,6ZM2.66367,0C2.66367,0,2.66367,1.33333,2.66367,1.33333C2.66367,1.33333,3.99699,1.33333,3.99699,1.33333C3.99699,1.33333,3.99699,5.64,3.99699,5.64C3.99699,5.64,0.23634,11.6333,0.23634,11.6333C0.0897098,11.867,0.00831354,12.1357,0.000603689,12.4115C-0.00710614,12.6873,0.0591517,12.9601,0.192496,13.2016C0.32584,13.4431,0.521411,13.6445,0.758896,13.7849C0.996381,13.9253,1.26712,13.9996,1.54301,14C1.54301,14,10.451,14,10.451,14C10.7269,13.9996,10.9976,13.9253,11.2351,13.7849C11.4726,13.6445,11.6682,13.4431,11.8015,13.2016C11.9348,12.9601,12.0011,12.6873,11.9934,12.4115C11.9857,12.1357,11.9043,11.867,11.7577,11.6333C11.7577,11.6333,7.99766,5.64,7.99766,5.64C7.99766,5.64,7.99699,1.33333,7.99699,1.33333C7.99699,1.33333,9.33034,1.33333,9.33034,1.33333C9.33034,1.33333,9.33034,0,9.33034,0C9.33034,0,2.66367,0,2.66367,0C2.66367,0,2.66367,0,2.66367,0Z" fill="#000000" fill-opacity="1"/></g></svg>