<svg xmlns="http://www.w3.org/2000/svg" xmlns:xlink="http://www.w3.org/1999/xlink" fill="none" version="1.1" width="13.66670036315918" height="13.66670036315918" viewBox="0 0 13.66670036315918 13.66670036315918"><g style="mix-blend-mode:passthrough"><path d="M5.66667,1.66667C5.79928,1.66667,5.92648,1.71935,6.02024,1.81312C6.114,1.90688,6.16667,2.03406,6.16667,2.16667C6.16667,2.16667,6.16667,7.50002,6.16667,7.50002C6.16667,7.50002,11.5,7.50002,11.5,7.50002C11.6209,7.50002,11.7376,7.5438,11.8286,7.62319C11.9197,7.70261,11.9789,7.81231,11.9954,7.93202C11.9954,7.93202,12,8.00002,12,8.00002C12,11.3134,9.31337,13.6667,6.00001,13.6667C4.40871,13.6667,2.88258,13.0346,1.75736,11.9093C0.632142,10.7841,1.18424e-15,9.25798,0,7.66668C-4.44091e-16,4.35335,2.35334,1.66667,5.66667,1.66667C5.66667,1.66667,5.66667,1.66667,5.66667,1.66667ZM5.16667,2.69134C5.16667,2.69134,5.02734,2.70734,5.02734,2.70734C2.56734,3.02067,1,5.12203,1,7.66668C1,8.99276,1.52679,10.2645,2.46447,11.2022C3.40215,12.1399,4.67393,12.6667,6.00001,12.6667C8.54469,12.6667,10.6454,11.0987,10.96,8.63935C10.96,8.63935,10.9747,8.50002,10.9747,8.50002C10.9747,8.50002,5.66667,8.50002,5.66667,8.50002C5.54587,8.50002,5.42913,8.45624,5.33806,8.37685C5.24699,8.29743,5.18779,8.18773,5.17134,8.06802C5.17134,8.06802,5.16667,8.00002,5.16667,8.00002C5.16667,8.00002,5.16667,2.69134,5.16667,2.69134C5.16667,2.69134,5.16667,2.69134,5.16667,2.69134ZM7.66668,0C9.25798,1.18424e-15,10.7841,0.632142,11.9093,1.75736C13.0346,2.88258,13.6667,4.40871,13.6667,6.00001C13.6667,6.13262,13.614,6.25979,13.5203,6.35358C13.4265,6.44734,13.2993,6.50002,13.1667,6.50002C13.1667,6.50002,7.66668,6.50002,7.66668,6.50002C7.53407,6.50002,7.4069,6.44734,7.31314,6.35358C7.21938,6.25979,7.16667,6.13262,7.16667,6.00001C7.16667,6.00001,7.16667,0.500001,7.16667,0.500001C7.16667,0.367393,7.21938,0.240215,7.31314,0.146447C7.4069,0.0526785,7.53407,1.4803e-16,7.66668,0C7.66668,0,7.66668,0,7.66668,0C7.66668,0,7.66668,0,7.66668,0ZM8.16668,1.02467C8.16668,1.02467,8.16668,5.50001,8.16668,5.50001C8.16668,5.50001,12.6414,5.50001,12.6414,5.50001C12.6414,5.50001,12.626,5.36069,12.626,5.36069C12.4843,4.26452,11.9836,3.24618,11.2021,2.46463C10.4205,1.68309,9.40217,1.18237,8.306,1.04067C8.306,1.04067,8.16668,1.02467,8.16668,1.02467C8.16668,1.02467,8.16668,1.02467,8.16668,1.02467Z" fill="#000000" fill-opacity="1"/></g></svg>