<svg xmlns="http://www.w3.org/2000/svg" xmlns:xlink="http://www.w3.org/1999/xlink" fill="none" version="1.1" width="12.800000190734863" height="12.800000190734863" viewBox="0 0 12.800000190734863 12.800000190734863"><g style="mix-blend-mode:passthrough"><path d="M0,1.37143C2.03012e-16,1.0077,0.144489,0.658874,0.401683,0.401683C0.658874,0.144489,1.0077,4.06026e-16,1.37143,0C1.37143,0,4.11427,0,4.11427,0C4.47802,4.06026e-16,4.82685,0.144489,5.08403,0.401683C5.34122,0.658874,5.48573,1.0077,5.48573,1.37143C5.48573,1.37143,5.48573,4.11427,5.48573,4.11427C5.48573,4.47802,5.34122,4.82685,5.08403,5.08403C4.82685,5.34122,4.47802,5.48573,4.11427,5.48573C4.11427,5.48573,1.37143,5.48573,1.37143,5.48573C1.0077,5.48573,0.658874,5.34122,0.401683,5.08403C0.144489,4.82685,4.06026e-16,4.47802,0,4.11427C0,4.11427,0,1.37143,0,1.37143C0,1.37143,0,1.37143,0,1.37143ZM1.37143,0.914285C1.25019,0.914285,1.13391,0.962448,1.04818,1.04818C0.962448,1.13391,0.914285,1.25019,0.914285,1.37143C0.914285,1.37143,0.914285,4.11427,0.914285,4.11427C0.914285,4.23552,0.962448,4.35181,1.04818,4.43754C1.13391,4.52326,1.25019,4.57142,1.37143,4.57142C1.37143,4.57142,4.11427,4.57142,4.11427,4.57142C4.23552,4.57142,4.35181,4.52326,4.43754,4.43754C4.52326,4.35181,4.57142,4.23552,4.57142,4.11427C4.57142,4.11427,4.57142,1.37143,4.57142,1.37143C4.57142,1.25019,4.52326,1.13391,4.43754,1.04818C4.35181,0.962448,4.23552,0.914285,4.11427,0.914285C4.11427,0.914285,1.37143,0.914285,1.37143,0.914285C1.37143,0.914285,1.37143,0.914285,1.37143,0.914285ZM7.31427,1.37143C7.31427,1.0077,7.45878,0.658874,7.71597,0.401683C7.97315,0.144489,8.32198,4.06026e-16,8.68573,0C8.68573,0,11.4286,0,11.4286,0C11.7923,2.03012e-16,12.1411,0.144489,12.3983,0.401683C12.6555,0.658874,12.8,1.0077,12.8,1.37143C12.8,1.37143,12.8,4.11427,12.8,4.11427C12.8,4.47802,12.6555,4.82685,12.3983,5.08403C12.1411,5.34122,11.7923,5.48573,11.4286,5.48573C11.4286,5.48573,8.68573,5.48573,8.68573,5.48573C8.32198,5.48573,7.97315,5.34122,7.71597,5.08403C7.45878,4.82685,7.31427,4.47802,7.31427,4.11427C7.31427,4.11427,7.31427,1.37143,7.31427,1.37143C7.31427,1.37143,7.31427,1.37143,7.31427,1.37143ZM8.68573,0.914285C8.56448,0.914285,8.44819,0.962448,8.36246,1.04818C8.27674,1.13391,8.22858,1.25019,8.22858,1.37143C8.22858,1.37143,8.22858,4.11427,8.22858,4.11427C8.22858,4.23552,8.27674,4.35181,8.36246,4.43754C8.44819,4.52326,8.56448,4.57142,8.68573,4.57142C8.68573,4.57142,11.4286,4.57142,11.4286,4.57142C11.5498,4.57142,11.6661,4.52326,11.7518,4.43754C11.8375,4.35181,11.8857,4.23552,11.8857,4.11427C11.8857,4.11427,11.8857,1.37143,11.8857,1.37143C11.8857,1.25019,11.8375,1.13391,11.7518,1.04818C11.6661,0.962448,11.5498,0.914285,11.4286,0.914285C11.4286,0.914285,8.68573,0.914285,8.68573,0.914285C8.68573,0.914285,8.68573,0.914285,8.68573,0.914285ZM0,8.68573C2.03012e-16,8.32198,0.144489,7.97315,0.401683,7.71597C0.658874,7.45878,1.0077,7.31427,1.37143,7.31427C1.37143,7.31427,4.11427,7.31427,4.11427,7.31427C4.47802,7.31427,4.82685,7.45878,5.08403,7.71597C5.34122,7.97315,5.48573,8.32198,5.48573,8.68573C5.48573,8.68573,5.48573,11.4286,5.48573,11.4286C5.48573,11.7923,5.34122,12.1411,5.08403,12.3983C4.82685,12.6555,4.47802,12.8,4.11427,12.8C4.11427,12.8,1.37143,12.8,1.37143,12.8C1.0077,12.8,0.658874,12.6555,0.401683,12.3983C0.144489,12.1411,4.06026e-16,11.7923,0,11.4286C0,11.4286,0,8.68573,0,8.68573C0,8.68573,0,8.68573,0,8.68573ZM1.37143,8.22858C1.25019,8.22858,1.13391,8.27674,1.04818,8.36246C0.962448,8.44819,0.914285,8.56448,0.914285,8.68573C0.914285,8.68573,0.914285,11.4286,0.914285,11.4286C0.914285,11.5498,0.962448,11.6661,1.04818,11.7518C1.13391,11.8375,1.25019,11.8857,1.37143,11.8857C1.37143,11.8857,4.11427,11.8857,4.11427,11.8857C4.23552,11.8857,4.35181,11.8375,4.43754,11.7518C4.52326,11.6661,4.57142,11.5498,4.57142,11.4286C4.57142,11.4286,4.57142,8.68573,4.57142,8.68573C4.57142,8.56448,4.52326,8.44819,4.43754,8.36246C4.35181,8.27674,4.23552,8.22858,4.11427,8.22858C4.11427,8.22858,1.37143,8.22858,1.37143,8.22858C1.37143,8.22858,1.37143,8.22858,1.37143,8.22858ZM7.31427,8.68573C7.31427,8.32198,7.45878,7.97315,7.71597,7.71597C7.97315,7.45878,8.32198,7.31427,8.68573,7.31427C8.68573,7.31427,11.4286,7.31427,11.4286,7.31427C11.7923,7.31427,12.1411,7.45878,12.3983,7.71597C12.6555,7.97315,12.8,8.32198,12.8,8.68573C12.8,8.68573,12.8,11.4286,12.8,11.4286C12.8,11.7923,12.6555,12.1411,12.3983,12.3983C12.1411,12.6555,11.7923,12.8,11.4286,12.8C11.4286,12.8,8.68573,12.8,8.68573,12.8C8.32198,12.8,7.97315,12.6555,7.71597,12.3983C7.45878,12.1411,7.31427,11.7923,7.31427,11.4286C7.31427,11.4286,7.31427,8.68573,7.31427,8.68573C7.31427,8.68573,7.31427,8.68573,7.31427,8.68573ZM8.68573,8.22858C8.56448,8.22858,8.44819,8.27674,8.36246,8.36246C8.27674,8.44819,8.22858,8.56448,8.22858,8.68573C8.22858,8.68573,8.22858,11.4286,8.22858,11.4286C8.22858,11.5498,8.27674,11.6661,8.36246,11.7518C8.44819,11.8375,8.56448,11.8857,8.68573,11.8857C8.68573,11.8857,11.4286,11.8857,11.4286,11.8857C11.5498,11.8857,11.6661,11.8375,11.7518,11.7518C11.8375,11.6661,11.8857,11.5498,11.8857,11.4286C11.8857,11.4286,11.8857,8.68573,11.8857,8.68573C11.8857,8.56448,11.8375,8.44819,11.7518,8.36246C11.6661,8.27674,11.5498,8.22858,11.4286,8.22858C11.4286,8.22858,8.68573,8.22858,8.68573,8.22858C8.68573,8.22858,8.68573,8.22858,8.68573,8.22858Z" fill="#000000" fill-opacity="1"/></g></svg>