<svg xmlns="http://www.w3.org/2000/svg" xmlns:xlink="http://www.w3.org/1999/xlink" fill="none" version="1.1" width="16" height="16" viewBox="0 0 16 16"><clipPath id="master_svg0_16_1457/0_2875"><rect x="0" y="0" width="16" height="16" rx="0"/></clipPath><g clip-path="url(#master_svg0_16_1457/0_2875)" style="mix-blend-mode:passthrough"><g><g style="mix-blend-mode:passthrough"><g><g style="mix-blend-mode:passthrough"><path d="M4.000057755069733,2.826525099277496C4.000057755069733,2.826525099277496,12.000067755069733,2.826525099277496,12.000067755069733,2.826525099277496C12.000067755069733,2.826525099277496,12.000067755069733,2.5065250992774963,12.000067755069733,2.5065250992774963C12.000067755069733,2.5065250992774963,4.000057755069733,2.5065250992774963,4.000057755069733,2.5065250992774963C4.000057755069733,2.5065250992774963,4.000057755069733,2.826525099277496,4.000057755069733,2.826525099277496C4.000057755069733,2.826525099277496,4.000057755069733,2.826525099277496,4.000057755069733,2.826525099277496ZM12.000067755069733,2.826525099277496C12.648027755069732,2.826525099277496,13.173427755069733,3.351843099277496,13.173427755069733,3.9998550992774966C13.173427755069733,3.9998550992774966,13.493427755069733,3.9998550992774966,13.493427755069733,3.9998550992774966C13.493427755069733,3.175114099277496,12.824827755069732,2.5065250992774963,12.000067755069733,2.5065250992774963C12.000067755069733,2.5065250992774963,12.000067755069733,2.826525099277496,12.000067755069733,2.826525099277496C12.000067755069733,2.826525099277496,12.000067755069733,2.826525099277496,12.000067755069733,2.826525099277496ZM13.173427755069733,3.9998550992774966C13.173427755069733,3.9998550992774966,13.173427755069733,11.999865099277496,13.173427755069733,11.999865099277496C13.173427755069733,11.999865099277496,13.493427755069733,11.999865099277496,13.493427755069733,11.999865099277496C13.493427755069733,11.999865099277496,13.493427755069733,3.9998550992774966,13.493427755069733,3.9998550992774966C13.493427755069733,3.9998550992774966,13.173427755069733,3.9998550992774966,13.173427755069733,3.9998550992774966C13.173427755069733,3.9998550992774966,13.173427755069733,3.9998550992774966,13.173427755069733,3.9998550992774966ZM13.173427755069733,11.999865099277496C13.173427755069733,12.647825099277496,12.648027755069732,13.173225099277497,12.000067755069733,13.173225099277497C12.000067755069733,13.173225099277497,12.000067755069733,13.493225099277497,12.000067755069733,13.493225099277497C12.824827755069732,13.493225099277497,13.493427755069733,12.824625099277496,13.493427755069733,11.999865099277496C13.493427755069733,11.999865099277496,13.173427755069733,11.999865099277496,13.173427755069733,11.999865099277496C13.173427755069733,11.999865099277496,13.173427755069733,11.999865099277496,13.173427755069733,11.999865099277496ZM12.000067755069733,13.173225099277497C12.000067755069733,13.173225099277497,4.000057755069733,13.173225099277497,4.000057755069733,13.173225099277497C4.000057755069733,13.173225099277497,4.000057755069733,13.493225099277497,4.000057755069733,13.493225099277497C4.000057755069733,13.493225099277497,12.000067755069733,13.493225099277497,12.000067755069733,13.493225099277497C12.000067755069733,13.493225099277497,12.000067755069733,13.173225099277497,12.000067755069733,13.173225099277497C12.000067755069733,13.173225099277497,12.000067755069733,13.173225099277497,12.000067755069733,13.173225099277497ZM4.000057755069733,13.173225099277497C3.3520457550697325,13.173225099277497,2.8267277550697325,12.647825099277496,2.8267277550697325,11.999865099277496C2.8267277550697325,11.999865099277496,2.5067277550697327,11.999865099277496,2.5067277550697327,11.999865099277496C2.5067277550697327,12.824625099277496,3.1753167550697325,13.493225099277497,4.000057755069733,13.493225099277497C4.000057755069733,13.493225099277497,4.000057755069733,13.173225099277497,4.000057755069733,13.173225099277497C4.000057755069733,13.173225099277497,4.000057755069733,13.173225099277497,4.000057755069733,13.173225099277497ZM2.8267277550697325,11.999865099277496C2.8267277550697325,11.999865099277496,2.8267277550697325,3.9998550992774966,2.8267277550697325,3.9998550992774966C2.8267277550697325,3.9998550992774966,2.5067277550697327,3.9998550992774966,2.5067277550697327,3.9998550992774966C2.5067277550697327,3.9998550992774966,2.5067277550697327,11.999865099277496,2.5067277550697327,11.999865099277496C2.5067277550697327,11.999865099277496,2.8267277550697325,11.999865099277496,2.8267277550697325,11.999865099277496C2.8267277550697325,11.999865099277496,2.8267277550697325,11.999865099277496,2.8267277550697325,11.999865099277496ZM2.8267277550697325,3.9998550992774966C2.8267277550697325,3.351843099277496,3.3520457550697325,2.826525099277496,4.000057755069733,2.826525099277496C4.000057755069733,2.826525099277496,4.000057755069733,2.5065250992774963,4.000057755069733,2.5065250992774963C3.1753167550697325,2.5065250992774963,2.5067277550697327,3.175114099277496,2.5067277550697327,3.9998550992774966C2.5067277550697327,3.9998550992774966,2.8267277550697325,3.9998550992774966,2.8267277550697325,3.9998550992774966C2.8267277550697325,3.9998550992774966,2.8267277550697325,3.9998550992774966,2.8267277550697325,3.9998550992774966Z" fill="#000000" fill-opacity="1"/></g><g style="mix-blend-mode:passthrough"><path d="M5.999979708194733,6.0000211930274965C5.999979708194733,6.0000211930274965,5.999979708194733,5.840021193027496,5.999979708194733,5.840021193027496C5.911614308194733,5.840021193027496,5.839979708194733,5.911655793027497,5.839979708194733,6.0000211930274965C5.839979708194733,6.0000211930274965,5.999979708194733,6.0000211930274965,5.999979708194733,6.0000211930274965C5.999979708194733,6.0000211930274965,5.999979708194733,6.0000211930274965,5.999979708194733,6.0000211930274965ZM9.999979708194733,6.0000211930274965C9.999979708194733,6.0000211930274965,10.159979708194733,6.0000211930274965,10.159979708194733,6.0000211930274965C10.159979708194733,5.911655793027497,10.088329708194733,5.840021193027496,9.999979708194733,5.840021193027496C9.999979708194733,5.840021193027496,9.999979708194733,6.0000211930274965,9.999979708194733,6.0000211930274965C9.999979708194733,6.0000211930274965,9.999979708194733,6.0000211930274965,9.999979708194733,6.0000211930274965ZM9.999979708194733,10.000021193027496C9.999979708194733,10.000021193027496,9.999979708194733,10.160021193027497,9.999979708194733,10.160021193027497C10.088329708194733,10.160021193027497,10.159979708194733,10.088371193027497,10.159979708194733,10.000021193027496C10.159979708194733,10.000021193027496,9.999979708194733,10.000021193027496,9.999979708194733,10.000021193027496C9.999979708194733,10.000021193027496,9.999979708194733,10.000021193027496,9.999979708194733,10.000021193027496ZM5.999979708194733,10.000021193027496C5.999979708194733,10.000021193027496,5.839979708194733,10.000021193027496,5.839979708194733,10.000021193027496C5.839979708194733,10.088371193027497,5.911614308194733,10.160021193027497,5.999979708194733,10.160021193027497C5.999979708194733,10.160021193027497,5.999979708194733,10.000021193027496,5.999979708194733,10.000021193027496C5.999979708194733,10.000021193027496,5.999979708194733,10.000021193027496,5.999979708194733,10.000021193027496ZM5.999979708194733,6.160021193027497C5.999979708194733,6.160021193027497,9.999979708194733,6.160021193027497,9.999979708194733,6.160021193027497C9.999979708194733,6.160021193027497,9.999979708194733,5.840021193027496,9.999979708194733,5.840021193027496C9.999979708194733,5.840021193027496,5.999979708194733,5.840021193027496,5.999979708194733,5.840021193027496C5.999979708194733,5.840021193027496,5.999979708194733,6.160021193027497,5.999979708194733,6.160021193027497C5.999979708194733,6.160021193027497,5.999979708194733,6.160021193027497,5.999979708194733,6.160021193027497ZM9.839979708194733,6.0000211930274965C9.839979708194733,6.0000211930274965,9.839979708194733,10.000021193027496,9.839979708194733,10.000021193027496C9.839979708194733,10.000021193027496,10.159979708194733,10.000021193027496,10.159979708194733,10.000021193027496C10.159979708194733,10.000021193027496,10.159979708194733,6.0000211930274965,10.159979708194733,6.0000211930274965C10.159979708194733,6.0000211930274965,9.839979708194733,6.0000211930274965,9.839979708194733,6.0000211930274965C9.839979708194733,6.0000211930274965,9.839979708194733,6.0000211930274965,9.839979708194733,6.0000211930274965ZM9.999979708194733,9.840021193027496C9.999979708194733,9.840021193027496,5.999979708194733,9.840021193027496,5.999979708194733,9.840021193027496C5.999979708194733,9.840021193027496,5.999979708194733,10.160021193027497,5.999979708194733,10.160021193027497C5.999979708194733,10.160021193027497,9.999979708194733,10.160021193027497,9.999979708194733,10.160021193027497C9.999979708194733,10.160021193027497,9.999979708194733,9.840021193027496,9.999979708194733,9.840021193027496C9.999979708194733,9.840021193027496,9.999979708194733,9.840021193027496,9.999979708194733,9.840021193027496ZM6.159979708194733,10.000021193027496C6.159979708194733,10.000021193027496,6.159979708194733,6.0000211930274965,6.159979708194733,6.0000211930274965C6.159979708194733,6.0000211930274965,5.839979708194733,6.0000211930274965,5.839979708194733,6.0000211930274965C5.839979708194733,6.0000211930274965,5.839979708194733,10.000021193027496,5.839979708194733,10.000021193027496C5.839979708194733,10.000021193027496,6.159979708194733,10.000021193027496,6.159979708194733,10.000021193027496C6.159979708194733,10.000021193027496,6.159979708194733,10.000021193027496,6.159979708194733,10.000021193027496Z" fill="#000000" fill-opacity="1"/></g><g style="mix-blend-mode:passthrough"><path d="M6.159979708194733,0.6665250992774964C6.159979708194733,0.5781596992774963,6.088344708194732,0.5065250992774963,5.999979708194733,0.5065250992774963C5.911614308194733,0.5065250992774963,5.839979708194733,0.5781596992774963,5.839979708194733,0.6665250992774964C5.839979708194733,0.6665250992774964,6.159979708194733,0.6665250992774964,6.159979708194733,0.6665250992774964C6.159979708194733,0.6665250992774964,6.159979708194733,0.6665250992774964,6.159979708194733,0.6665250992774964ZM5.839979708194733,2.6665250992774965C5.839979708194733,2.7548850992774963,5.911614308194733,2.826525099277496,5.999979708194733,2.826525099277496C6.088344708194732,2.826525099277496,6.159979708194733,2.7548850992774963,6.159979708194733,2.6665250992774965C6.159979708194733,2.6665250992774965,5.839979708194733,2.6665250992774965,5.839979708194733,2.6665250992774965C5.839979708194733,2.6665250992774965,5.839979708194733,2.6665250992774965,5.839979708194733,2.6665250992774965ZM5.839979708194733,0.6665250992774964C5.839979708194733,0.6665250992774964,5.839979708194733,2.6665250992774965,5.839979708194733,2.6665250992774965C5.839979708194733,2.6665250992774965,6.159979708194733,2.6665250992774965,6.159979708194733,2.6665250992774965C6.159979708194733,2.6665250992774965,6.159979708194733,0.6665250992774964,6.159979708194733,0.6665250992774964C6.159979708194733,0.6665250992774964,5.839979708194733,0.6665250992774964,5.839979708194733,0.6665250992774964C5.839979708194733,0.6665250992774964,5.839979708194733,0.6665250992774964,5.839979708194733,0.6665250992774964Z" fill="#000000" fill-opacity="1"/></g><g style="mix-blend-mode:passthrough"><path d="M10.159979708194733,0.6665250992774964C10.159979708194733,0.5781596992774963,10.088344708194732,0.5065250992774963,9.999979708194733,0.5065250992774963C9.911614308194732,0.5065250992774963,9.839979708194733,0.5781596992774963,9.839979708194733,0.6665250992774964C9.839979708194733,0.6665250992774964,10.159979708194733,0.6665250992774964,10.159979708194733,0.6665250992774964C10.159979708194733,0.6665250992774964,10.159979708194733,0.6665250992774964,10.159979708194733,0.6665250992774964ZM9.839979708194733,2.6665250992774965C9.839979708194733,2.7548850992774963,9.911614308194732,2.826525099277496,9.999979708194733,2.826525099277496C10.088344708194732,2.826525099277496,10.159979708194733,2.7548850992774963,10.159979708194733,2.6665250992774965C10.159979708194733,2.6665250992774965,9.839979708194733,2.6665250992774965,9.839979708194733,2.6665250992774965C9.839979708194733,2.6665250992774965,9.839979708194733,2.6665250992774965,9.839979708194733,2.6665250992774965ZM9.839979708194733,0.6665250992774964C9.839979708194733,0.6665250992774964,9.839979708194733,2.6665250992774965,9.839979708194733,2.6665250992774965C9.839979708194733,2.6665250992774965,10.159979708194733,2.6665250992774965,10.159979708194733,2.6665250992774965C10.159979708194733,2.6665250992774965,10.159979708194733,0.6665250992774964,10.159979708194733,0.6665250992774964C10.159979708194733,0.6665250992774964,9.839979708194733,0.6665250992774964,9.839979708194733,0.6665250992774964C9.839979708194733,0.6665250992774964,9.839979708194733,0.6665250992774964,9.839979708194733,0.6665250992774964Z" fill="#000000" fill-opacity="1"/></g><g style="mix-blend-mode:passthrough"><path d="M6.159979708194733,13.333273146152496C6.159979708194733,13.244907746152496,6.088344708194732,13.173273146152496,5.999979708194733,13.173273146152496C5.911614308194733,13.173273146152496,5.839979708194733,13.244907746152496,5.839979708194733,13.333273146152496C5.839979708194733,13.333273146152496,6.159979708194733,13.333273146152496,6.159979708194733,13.333273146152496C6.159979708194733,13.333273146152496,6.159979708194733,13.333273146152496,6.159979708194733,13.333273146152496ZM5.839979708194733,15.333273146152496C5.839979708194733,15.421633146152496,5.911614308194733,15.493273146152497,5.999979708194733,15.493273146152497C6.088344708194732,15.493273146152497,6.159979708194733,15.421633146152496,6.159979708194733,15.333273146152496C6.159979708194733,15.333273146152496,5.839979708194733,15.333273146152496,5.839979708194733,15.333273146152496C5.839979708194733,15.333273146152496,5.839979708194733,15.333273146152496,5.839979708194733,15.333273146152496ZM5.839979708194733,13.333273146152496C5.839979708194733,13.333273146152496,5.839979708194733,15.333273146152496,5.839979708194733,15.333273146152496C5.839979708194733,15.333273146152496,6.159979708194733,15.333273146152496,6.159979708194733,15.333273146152496C6.159979708194733,15.333273146152496,6.159979708194733,13.333273146152496,6.159979708194733,13.333273146152496C6.159979708194733,13.333273146152496,5.839979708194733,13.333273146152496,5.839979708194733,13.333273146152496C5.839979708194733,13.333273146152496,5.839979708194733,13.333273146152496,5.839979708194733,13.333273146152496Z" fill="#000000" fill-opacity="1"/></g><g style="mix-blend-mode:passthrough"><path d="M10.159979708194733,13.333273146152496C10.159979708194733,13.244907746152496,10.088344708194732,13.173273146152496,9.999979708194733,13.173273146152496C9.911614308194732,13.173273146152496,9.839979708194733,13.244907746152496,9.839979708194733,13.333273146152496C9.839979708194733,13.333273146152496,10.159979708194733,13.333273146152496,10.159979708194733,13.333273146152496C10.159979708194733,13.333273146152496,10.159979708194733,13.333273146152496,10.159979708194733,13.333273146152496ZM9.839979708194733,15.333273146152496C9.839979708194733,15.421633146152496,9.911614308194732,15.493273146152497,9.999979708194733,15.493273146152497C10.088344708194732,15.493273146152497,10.159979708194733,15.421633146152496,10.159979708194733,15.333273146152496C10.159979708194733,15.333273146152496,9.839979708194733,15.333273146152496,9.839979708194733,15.333273146152496C9.839979708194733,15.333273146152496,9.839979708194733,15.333273146152496,9.839979708194733,15.333273146152496ZM9.839979708194733,13.333273146152496C9.839979708194733,13.333273146152496,9.839979708194733,15.333273146152496,9.839979708194733,15.333273146152496C9.839979708194733,15.333273146152496,10.159979708194733,15.333273146152496,10.159979708194733,15.333273146152496C10.159979708194733,15.333273146152496,10.159979708194733,13.333273146152496,10.159979708194733,13.333273146152496C10.159979708194733,13.333273146152496,9.839979708194733,13.333273146152496,9.839979708194733,13.333273146152496C9.839979708194733,13.333273146152496,9.839979708194733,13.333273146152496,9.839979708194733,13.333273146152496Z" fill="#000000" fill-opacity="1"/></g><g style="mix-blend-mode:passthrough"><path d="M13.333353731632233,5.840021193027496C13.244988331632232,5.840021193027496,13.173353731632233,5.911655793027497,13.173353731632233,6.0000211930274965C13.173353731632233,6.088386193027496,13.244988331632232,6.160021193027497,13.333353731632233,6.160021193027497C13.333353731632233,6.160021193027497,13.333353731632233,5.840021193027496,13.333353731632233,5.840021193027496C13.333353731632233,5.840021193027496,13.333353731632233,5.840021193027496,13.333353731632233,5.840021193027496ZM15.333353731632233,6.160021193027497C15.421713731632233,6.160021193027497,15.493353731632233,6.088386193027496,15.493353731632233,6.0000211930274965C15.493353731632233,5.911655793027497,15.421713731632233,5.840021193027496,15.333353731632233,5.840021193027496C15.333353731632233,5.840021193027496,15.333353731632233,6.160021193027497,15.333353731632233,6.160021193027497C15.333353731632233,6.160021193027497,15.333353731632233,6.160021193027497,15.333353731632233,6.160021193027497ZM13.333353731632233,6.160021193027497C13.333353731632233,6.160021193027497,15.333353731632233,6.160021193027497,15.333353731632233,6.160021193027497C15.333353731632233,6.160021193027497,15.333353731632233,5.840021193027496,15.333353731632233,5.840021193027496C15.333353731632233,5.840021193027496,13.333353731632233,5.840021193027496,13.333353731632233,5.840021193027496C13.333353731632233,5.840021193027496,13.333353731632233,6.160021193027497,13.333353731632233,6.160021193027497C13.333353731632233,6.160021193027497,13.333353731632233,6.160021193027497,13.333353731632233,6.160021193027497Z" fill="#000000" fill-opacity="1"/></g><g style="mix-blend-mode:passthrough"><path d="M13.333353731632233,9.173273146152496C13.244988331632232,9.173273146152496,13.173353731632233,9.244907746152496,13.173353731632233,9.333273146152496C13.173353731632233,9.421638146152496,13.244988331632232,9.493273146152497,13.333353731632233,9.493273146152497C13.333353731632233,9.493273146152497,13.333353731632233,9.173273146152496,13.333353731632233,9.173273146152496C13.333353731632233,9.173273146152496,13.333353731632233,9.173273146152496,13.333353731632233,9.173273146152496ZM15.333353731632233,9.493273146152497C15.421713731632233,9.493273146152497,15.493353731632233,9.421638146152496,15.493353731632233,9.333273146152496C15.493353731632233,9.244907746152496,15.421713731632233,9.173273146152496,15.333353731632233,9.173273146152496C15.333353731632233,9.173273146152496,15.333353731632233,9.493273146152497,15.333353731632233,9.493273146152497C15.333353731632233,9.493273146152497,15.333353731632233,9.493273146152497,15.333353731632233,9.493273146152497ZM13.333353731632233,9.493273146152497C13.333353731632233,9.493273146152497,15.333353731632233,9.493273146152497,15.333353731632233,9.493273146152497C15.333353731632233,9.493273146152497,15.333353731632233,9.173273146152496,15.333353731632233,9.173273146152496C15.333353731632233,9.173273146152496,13.333353731632233,9.173273146152496,13.333353731632233,9.173273146152496C13.333353731632233,9.173273146152496,13.333353731632233,9.493273146152497,13.333353731632233,9.493273146152497C13.333353731632233,9.493273146152497,13.333353731632233,9.493273146152497,13.333353731632233,9.493273146152497Z" fill="#000000" fill-opacity="1"/></g><g style="mix-blend-mode:passthrough"><path d="M0.6667277550697327,5.840021193027496C0.5783623550697327,5.840021193027496,0.5067277550697327,5.911655793027497,0.5067277550697327,6.0000211930274965C0.5067277550697327,6.088386193027496,0.5783623550697327,6.160021193027497,0.6667277550697327,6.160021193027497C0.6667277550697327,6.160021193027497,0.6667277550697327,5.840021193027496,0.6667277550697327,5.840021193027496C0.6667277550697327,5.840021193027496,0.6667277550697327,5.840021193027496,0.6667277550697327,5.840021193027496ZM2.666727755069733,6.160021193027497C2.7550877550697326,6.160021193027497,2.8267277550697325,6.088386193027496,2.8267277550697325,6.0000211930274965C2.8267277550697325,5.911655793027497,2.7550877550697326,5.840021193027496,2.666727755069733,5.840021193027496C2.666727755069733,5.840021193027496,2.666727755069733,6.160021193027497,2.666727755069733,6.160021193027497C2.666727755069733,6.160021193027497,2.666727755069733,6.160021193027497,2.666727755069733,6.160021193027497ZM0.6667277550697327,6.160021193027497C0.6667277550697327,6.160021193027497,2.666727755069733,6.160021193027497,2.666727755069733,6.160021193027497C2.666727755069733,6.160021193027497,2.666727755069733,5.840021193027496,2.666727755069733,5.840021193027496C2.666727755069733,5.840021193027496,0.6667277550697327,5.840021193027496,0.6667277550697327,5.840021193027496C0.6667277550697327,5.840021193027496,0.6667277550697327,6.160021193027497,0.6667277550697327,6.160021193027497C0.6667277550697327,6.160021193027497,0.6667277550697327,6.160021193027497,0.6667277550697327,6.160021193027497Z" fill="#000000" fill-opacity="1"/></g><g style="mix-blend-mode:passthrough"><path d="M0.6667277550697327,9.173273146152496C0.5783623550697327,9.173273146152496,0.5067277550697327,9.244907746152496,0.5067277550697327,9.333273146152496C0.5067277550697327,9.421638146152496,0.5783623550697327,9.493273146152497,0.6667277550697327,9.493273146152497C0.6667277550697327,9.493273146152497,0.6667277550697327,9.173273146152496,0.6667277550697327,9.173273146152496C0.6667277550697327,9.173273146152496,0.6667277550697327,9.173273146152496,0.6667277550697327,9.173273146152496ZM2.666727755069733,9.493273146152497C2.7550877550697326,9.493273146152497,2.8267277550697325,9.421638146152496,2.8267277550697325,9.333273146152496C2.8267277550697325,9.244907746152496,2.7550877550697326,9.173273146152496,2.666727755069733,9.173273146152496C2.666727755069733,9.173273146152496,2.666727755069733,9.493273146152497,2.666727755069733,9.493273146152497C2.666727755069733,9.493273146152497,2.666727755069733,9.493273146152497,2.666727755069733,9.493273146152497ZM0.6667277550697327,9.493273146152497C0.6667277550697327,9.493273146152497,2.666727755069733,9.493273146152497,2.666727755069733,9.493273146152497C2.666727755069733,9.493273146152497,2.666727755069733,9.173273146152496,2.666727755069733,9.173273146152496C2.666727755069733,9.173273146152496,0.6667277550697327,9.173273146152496,0.6667277550697327,9.173273146152496C0.6667277550697327,9.173273146152496,0.6667277550697327,9.493273146152497,0.6667277550697327,9.493273146152497C0.6667277550697327,9.493273146152497,0.6667277550697327,9.493273146152497,0.6667277550697327,9.493273146152497Z" fill="#000000" fill-opacity="1"/></g></g></g></g></g></svg>