<svg xmlns="http://www.w3.org/2000/svg" xmlns:xlink="http://www.w3.org/1999/xlink" fill="none" version="1.1" width="24" height="24" viewBox="0 0 24 24"><clipPath id="master_svg0_16_3898/0_5594"><rect x="0" y="0" width="24" height="24" rx="0"/></clipPath><g clip-path="url(#master_svg0_16_3898/0_5594)" style="mix-blend-mode:passthrough"><g><g style="mix-blend-mode:passthrough"><g><g style="mix-blend-mode:passthrough"><path d="M2.403752690894332,11.999995517730714C2.403341317965332,10.943415517730713,2.751692326965332,9.916245517730713,3.394745326965332,9.077895517730713C4.037792326965332,8.239545517730713,4.939592326965332,7.636883517730713,5.960172326965332,7.363452517730713C6.980752326965332,7.0900205177307125,8.063042326965332,7.161104717730713,9.039122326965332,7.565673517730713C10.015152326965332,7.970241517730713,10.830382326965331,8.685675517730713,11.358242326965332,9.600935517730713C11.358242326965332,9.600935517730713,19.197252326965334,9.600935517730713,19.197252326965334,9.600935517730713C19.27605232696533,9.600785517730714,19.35405232696533,9.616185517730713,19.42695232696533,9.646235517730712C19.499752326965332,9.676285517730713,19.56605232696533,9.720405517730713,19.62185232696533,9.776065517730713C19.62185232696533,9.776065517730713,21.42115232696533,11.575365517730713,21.42115232696533,11.575365517730713C21.476952326965332,11.631075517730713,21.52135232696533,11.697255517730714,21.551552326965332,11.770125517730712C21.581752326965333,11.842995517730714,21.597352326965332,11.921105517730712,21.597352326965332,11.999995517730714C21.597352326965332,12.078905517730714,21.581752326965333,12.157005517730713,21.551552326965332,12.229865517730712C21.52135232696533,12.302735517730714,21.476952326965332,12.368925517730712,21.42115232696533,12.424655517730713C21.42115232696533,12.424655517730713,19.62185232696533,14.223935517730713,19.62185232696533,14.223935517730713C19.566152326965334,14.279805517730713,19.49995232696533,14.324105517730713,19.42705232696533,14.354345517730714C19.354252326965334,14.384585517730713,19.27605232696533,14.400135517730714,19.197252326965334,14.400135517730714C19.118252326965333,14.400135517730714,19.040252326965334,14.384585517730713,18.967352326965333,14.354345517730714C18.894452326965332,14.324105517730713,18.82825232696533,14.279805517730713,18.772552326965332,14.223935517730713C18.772552326965332,14.223935517730713,17.99765232696533,13.447825517730713,17.99765232696533,13.447825517730713C17.99765232696533,13.447825517730713,17.222752326965335,14.223935517730713,17.222752326965335,14.223935517730713C17.167052326965333,14.279805517730713,17.10085232696533,14.324105517730713,17.027952326965334,14.354345517730714C16.955152326965333,14.384585517730713,16.877052326965334,14.400135517730714,16.79815232696533,14.400135517730714C16.719252326965332,14.400135517730714,16.641152326965333,14.384585517730713,16.568252326965332,14.354345517730714C16.49535232696533,14.324105517730713,16.42915232696533,14.279805517730713,16.37355232696533,14.223935517730713C16.37355232696533,14.223935517730713,15.598652326965333,13.447825517730713,15.598652326965333,13.447825517730713C15.598652326965333,13.447825517730713,14.823652326965332,14.223935517730713,14.823652326965332,14.223935517730713C14.768052326965332,14.279805517730713,14.701852326965332,14.324105517730713,14.628952326965331,14.354345517730714C14.556052326965332,14.384585517730713,14.477952326965331,14.400135517730714,14.399052326965332,14.400135517730714C14.320152326965331,14.400135517730714,14.242052326965332,14.384585517730713,14.169252326965331,14.354345517730714C14.096352326965333,14.324105517730713,14.030152326965332,14.279805517730713,13.974452326965332,14.223935517730713C13.974452326965332,14.223935517730713,13.199552326965332,13.447825517730713,13.199552326965332,13.447825517730713C13.199552326965332,13.447825517730713,12.424652326965331,14.223935517730713,12.424652326965331,14.223935517730713C12.368832326965332,14.279615517730713,12.302592326965332,14.323725517730713,12.229772326965332,14.353775517730714C12.156912326965331,14.383825517730713,12.078812326965332,14.399175517730713,12.000002326965332,14.399085517730713C12.000002326965332,14.399085517730713,11.358242326965332,14.399085517730713,11.358242326965332,14.399085517730713C10.830382326965331,15.314305517730713,10.015152326965332,16.029745517730714,9.039122326965332,16.434335517730712C8.063042326965332,16.838875517730713,6.980752326965332,16.90996551773071,5.960172326965332,16.636555517730713C4.939592326965332,16.363105517730713,4.037792326965332,15.760455517730714,3.394745326965332,14.922095517730714C2.751692326965332,14.083725517730713,2.403341317965332,13.056575517730714,2.403752690894332,11.999995517730714C2.403752690894332,11.999995517730714,2.403752690894332,11.999995517730714,2.403752690894332,11.999995517730714C2.403752690894332,11.999995517730714,2.403752690894332,11.999995517730714,2.403752690894332,11.999995517730714ZM7.201882326965332,8.401395517730712C6.557902326965332,8.401645517730714,5.925782326965332,8.574695517730714,5.371472326965332,8.902495517730713C4.817162326965332,9.230295517730713,4.360982326965332,9.700835517730713,4.050502326965332,10.265025517730713C3.740022326965332,10.829225517730713,3.586632326965332,11.466395517730714,3.6063323269653322,12.110055517730713C3.626032326965332,12.753735517730714,3.818102326965332,13.380335517730714,4.162492326965332,13.924505517730713C4.506892326965332,14.468635517730714,4.991002326965332,14.910425517730712,5.564312326965332,15.203705517730713C6.137632326965332,15.496985517730712,6.779142326965332,15.631105517730713,7.421952326965332,15.591935517730713C8.064722326965331,15.552815517730712,8.68522232696533,15.341895517730713,9.218742326965332,14.981225517730714C9.752212326965331,14.620555517730713,10.179172326965332,14.123325517730713,10.455022326965333,13.541415517730712C10.503702326965332,13.439135517730712,10.580352326965333,13.352785517730712,10.676112326965333,13.292295517730713C10.771822326965331,13.231775517730714,10.882752326965331,13.199615517730713,10.995982326965333,13.199515517730713C10.995982326965333,13.199515517730713,11.751692326965332,13.199515517730713,11.751692326965332,13.199515517730713C11.751692326965332,13.199515517730713,12.774952326965332,12.175145517730712,12.774952326965332,12.175145517730712C12.830652326965332,12.119275517730713,12.896752326965332,12.074975517730714,12.969652326965331,12.044735517730713C13.042552326965332,12.014495517730712,13.120652326965333,11.998925517730713,13.199552326965332,11.998925517730713C13.278452326965333,11.998925517730713,13.356552326965332,12.014495517730712,13.429352326965333,12.044735517730713C13.502252326965332,12.074975517730714,13.568452326965332,12.119275517730713,13.624152326965332,12.175145517730712C13.624152326965332,12.175145517730712,14.399052326965332,12.951215517730713,14.399052326965332,12.951215517730713C14.399052326965332,12.951215517730713,15.173952326965333,12.175145517730712,15.173952326965333,12.175145517730712C15.229652326965333,12.119275517730713,15.295852326965331,12.074975517730714,15.368752326965332,12.044735517730713C15.441552326965333,12.014495517730712,15.519652326965332,11.998925517730713,15.598652326965333,11.998925517730713C15.677452326965332,11.998925517730713,15.755652326965333,12.014495517730712,15.828452326965332,12.044735517730713C15.901352326965332,12.074975517730714,15.967552326965333,12.119275517730713,16.023252326965334,12.175145517730712C16.023252326965334,12.175145517730712,16.79815232696533,12.951215517730713,16.79815232696533,12.951215517730713C16.79815232696533,12.951215517730713,17.573052326965332,12.175145517730712,17.573052326965332,12.175145517730712C17.628752326965333,12.119275517730713,17.694952326965332,12.074975517730714,17.767752326965333,12.044735517730713C17.840652326965333,12.014495517730712,17.918752326965333,11.998925517730713,17.99765232696533,11.998925517730713C18.076552326965334,11.998925517730713,18.154652326965333,12.014495517730712,18.22755232696533,12.044735517730713C18.30035232696533,12.074975517730714,18.366552326965333,12.119275517730713,18.42225232696533,12.175145517730712C18.42225232696533,12.175145517730712,19.197252326965334,12.951215517730713,19.197252326965334,12.951215517730713C19.197252326965334,12.951215517730713,20.148452326965334,11.999995517730714,20.148452326965334,11.999995517730714C20.148452326965334,11.999995517730714,18.948952326965333,10.800465517730713,18.948952326965333,10.800465517730713C18.948952326965333,10.800465517730713,10.995982326965333,10.800465517730713,10.995982326965333,10.800465517730713C10.882752326965331,10.800365517730713,10.771822326965331,10.768215517730713,10.676112326965333,10.707715517730712C10.580352326965333,10.647215517730713,10.503702326965332,10.560845517730712,10.455022326965333,10.458595517730712C10.163142326965332,9.842885517730712,9.702482326965331,9.322695517730713,9.126582326965332,8.958515517730714C8.550722326965332,8.594335517730713,7.883232326965332,8.401135517730713,7.201882326965332,8.401395517730712C7.201882326965332,8.401395517730712,7.201882326965332,8.401395517730712,7.201882326965332,8.401395517730712C7.201882326965332,8.401395517730712,7.201882326965332,8.401395517730712,7.201882326965332,8.401395517730712Z" fill="#10B981" fill-opacity="1"/></g><g style="mix-blend-mode:passthrough"><path d="M7.202028011627197,12.000121455230714C7.202028011627197,12.318251455230714,7.075648011627197,12.623361455230713,6.850688011627197,12.848311455230712C6.625738011627197,13.073271455230714,6.320628011627197,13.199651455230713,6.002498011627197,13.199651455230713C5.684355011627197,13.199651455230713,5.379252011627197,13.073271455230714,5.154294011627197,12.848311455230712C4.929337011627197,12.623361455230713,4.802958011627198,12.318251455230714,4.802958011627197,12.000121455230714C4.802958011627197,11.681978455230713,4.929337011627197,11.376875455230714,5.154294011627197,11.151917455230713C5.379252011627197,10.926960455230713,5.684355011627197,10.800581455230711,6.002498011627197,10.800581455230713C6.320628011627197,10.800581455230711,6.625738011627197,10.926960455230713,6.850688011627197,11.151917455230713C7.075648011627197,11.376875455230714,7.202028011627197,11.681978455230713,7.202028011627197,12.000121455230714C7.202028011627197,12.000121455230714,7.202028011627197,12.000121455230714,7.202028011627197,12.000121455230714Z" fill="#10B981" fill-opacity="1"/></g></g></g></g></g></svg>