<svg xmlns="http://www.w3.org/2000/svg" xmlns:xlink="http://www.w3.org/1999/xlink" fill="none" version="1.1" width="24" height="24" viewBox="0 0 24 24"><clipPath id="master_svg0_16_3970/0_5598"><rect x="0" y="0" width="24" height="24" rx="0"/></clipPath><g clip-path="url(#master_svg0_16_3970/0_5598)" style="mix-blend-mode:passthrough"><g><g style="mix-blend-mode:passthrough"><g><g style="mix-blend-mode:passthrough"><path d="M8.290549914169311,12.000000095367431C8.290549914169311,12.181870095367431,8.368689914169313,12.356260095367432,8.507799914169311,12.484900095367431C8.646909914169312,12.613500095367431,8.835599914169311,12.685700095367432,9.032299914169311,12.685700095367432C9.032299914169311,12.685700095367432,17.626299914169312,12.685700095367432,17.626299914169312,12.685700095367432C17.626299914169312,12.685700095367432,14.441199914169312,15.628800095367431,14.441199914169312,15.628800095367431C14.301899914169312,15.757500095367432,14.22369991416931,15.932200095367431,14.22369991416931,16.114300095367433C14.22369991416931,16.29640009536743,14.301899914169312,16.47100009536743,14.441199914169312,16.59980009536743C14.580499914169312,16.72850009536743,14.76939991416931,16.80090009536743,14.966399914169312,16.80090009536743C15.163299914169311,16.80090009536743,15.352299914169311,16.72850009536743,15.491499914169312,16.59980009536743C15.491499914169312,16.59980009536743,19.94209991416931,12.485500095367431,19.94209991416931,12.485500095367431C20.01119991416931,12.421800095367432,20.06599991416931,12.346130095367432,20.103399914169312,12.262800095367432C20.14079991416931,12.179520095367431,20.159999914169312,12.090190095367431,20.159999914169312,12.000000095367431C20.159999914169312,11.909810095367432,20.14079991416931,11.820480095367431,20.103399914169312,11.737200095367431C20.06599991416931,11.65387009536743,20.01119991416931,11.578220095367431,19.94209991416931,11.514530095367432C19.94209991416931,11.514530095367432,15.491499914169312,7.400210095367432,15.491499914169312,7.400210095367432C15.352299914169311,7.271470095367432,15.163299914169311,7.1991300953674315,14.966399914169312,7.1991300953674315C14.76939991416931,7.1991300953674315,14.580499914169312,7.271470095367432,14.441199914169312,7.400210095367432C14.301899914169312,7.528990095367432,14.22369991416931,7.703620095367431,14.22369991416931,7.885730095367432C14.22369991416931,8.067790095367432,14.301899914169312,8.24246009536743,14.441199914169312,8.371200095367431C14.441199914169312,8.371200095367431,17.626299914169312,11.314270095367432,17.626299914169312,11.314270095367432C17.626299914169312,11.314270095367432,9.032299914169311,11.314270095367432,9.032299914169311,11.314270095367432C8.835599914169311,11.314270095367432,8.646909914169312,11.386510095367433,8.507799914169311,11.515100095367432C8.368689914169313,11.643740095367432,8.290549914169311,11.818130095367431,8.290549914169311,12.000000095367431C8.290549914169311,12.000000095367431,8.290549914169311,12.000000095367431,8.290549914169311,12.000000095367431ZM4.581757914169311,21.60000009536743C4.385029914169311,21.60000009536743,4.1963629141693115,21.527800095367432,4.057255914169311,21.39920009536743C3.9181492141693117,21.27060009536743,3.8399999141693115,21.096100095367433,3.8399999141693115,20.91430009536743C3.8399999141693115,20.91430009536743,3.8399999141693115,3.0857140953674316,3.8399999141693115,3.0857140953674316C3.8399999141693115,2.9038510953674317,3.9181492141693117,2.7294370953674316,4.057255914169311,2.6008410953674317C4.1963629141693115,2.4722448953674316,4.385029914169311,2.400000095367432,4.581757914169311,2.4000000953674316C4.778485914169312,2.400000095367432,4.9671599141693115,2.4722448953674316,5.1062599141693115,2.6008410953674317C5.245369914169311,2.7294370953674316,5.323519914169312,2.9038510953674317,5.323519914169312,3.0857140953674316C5.323519914169312,3.0857140953674316,5.323519914169312,20.91430009536743,5.323519914169312,20.91430009536743C5.323519914169312,21.096100095367433,5.245369914169311,21.27060009536743,5.1062599141693115,21.39920009536743C4.9671599141693115,21.527800095367432,4.778485914169312,21.60000009536743,4.581757914169311,21.60000009536743C4.581757914169311,21.60000009536743,4.581757914169311,21.60000009536743,4.581757914169311,21.60000009536743Z" fill-rule="evenodd" fill="#10B981" fill-opacity="1"/></g></g></g></g></g></svg>