<svg xmlns="http://www.w3.org/2000/svg" xmlns:xlink="http://www.w3.org/1999/xlink" fill="none" version="1.1" width="24" height="24" viewBox="0 0 24 24"><clipPath id="master_svg0_16_3890/0_5594"><rect x="0" y="0" width="24" height="24" rx="0"/></clipPath><g clip-path="url(#master_svg0_16_3890/0_5594)" style="mix-blend-mode:passthrough"><g><g style="mix-blend-mode:passthrough"><g><g style="mix-blend-mode:passthrough"><path d="M12.000000095367431,12.000000095367431C13.273100095367433,12.000000095367431,14.493900095367431,11.494270095367431,15.394100095367431,10.594130095367431C16.294300095367433,9.69394009536743,16.80000009536743,8.473060095367432,16.80000009536743,7.2000000953674315C16.80000009536743,5.9269600953674315,16.294300095367433,4.706060095367432,15.394100095367431,3.805890095367432C14.493900095367431,2.905714095367432,13.273100095367433,2.4000000953674325,12.000000095367431,2.4000000953674316C10.726940095367432,2.400000095367433,9.506060095367431,2.905714095367432,8.605870095367433,3.805890095367432C7.705730095367431,4.706060095367432,7.2000000953674315,5.9269600953674315,7.2000000953674315,7.2000000953674315C7.2000000953674315,8.473060095367432,7.705730095367431,9.69394009536743,8.605870095367433,10.594130095367431C9.506060095367431,11.494270095367431,10.726940095367432,12.000000095367431,12.000000095367431,12.000000095367431C12.000000095367431,12.000000095367431,12.000000095367431,12.000000095367431,12.000000095367431,12.000000095367431C12.000000095367431,12.000000095367431,12.000000095367431,12.000000095367431,12.000000095367431,12.000000095367431ZM15.200000095367432,7.2000000953674315C15.200000095367432,8.048690095367432,14.862900095367431,8.862620095367433,14.262700095367432,9.46272009536743C13.662600095367432,10.062860095367432,12.848700095367432,10.40002009536743,12.000000095367431,10.40002009536743C11.151310095367432,10.40002009536743,10.337380095367433,10.062860095367432,9.737280095367431,9.46272009536743C9.137140095367432,8.862620095367433,8.799980095367431,8.048690095367432,8.799980095367431,7.2000000953674315C8.799980095367431,6.351310095367431,9.137140095367432,5.537380095367432,9.737280095367431,4.9372600953674315C10.337380095367433,4.337140095367432,11.151310095367432,4.000000095367431,12.000000095367431,4.000000095367431C12.848700095367432,4.000000095367431,13.662600095367432,4.337140095367432,14.262700095367432,4.9372600953674315C14.862900095367431,5.537380095367432,15.200000095367432,6.351310095367431,15.200000095367432,7.2000000953674315C15.200000095367432,7.2000000953674315,15.200000095367432,7.2000000953674315,15.200000095367432,7.2000000953674315C15.200000095367432,7.2000000953674315,15.200000095367432,7.2000000953674315,15.200000095367432,7.2000000953674315ZM21.60000009536743,20.000000095367433C21.60000009536743,21.60000009536743,20.000000095367433,21.60000009536743,20.000000095367433,21.60000009536743C20.000000095367433,21.60000009536743,4.000000095367431,21.60000009536743,4.000000095367431,21.60000009536743C4.000000095367431,21.60000009536743,2.4000000953674316,21.60000009536743,2.4000000953674316,20.000000095367433C2.4000000953674316,18.40000009536743,4.000000095367431,13.600000095367431,12.000000095367431,13.600000095367431C20.000000095367433,13.600000095367431,21.60000009536743,18.40000009536743,21.60000009536743,20.000000095367433C21.60000009536743,20.000000095367433,21.60000009536743,20.000000095367433,21.60000009536743,20.000000095367433ZM20.000000095367433,19.99360009536743C19.998400095367433,19.60000009536743,19.753600095367432,18.41600009536743,18.66880009536743,17.331200095367432C17.62560009536743,16.28800009536743,15.662400095367431,15.200000095367432,12.000000095367431,15.200000095367432C8.33602009536743,15.200000095367432,6.374400095367432,16.28800009536743,5.331200095367432,17.331200095367432C4.246400095367432,18.41600009536743,4.003200095367432,19.60000009536743,4.000000095367431,19.99360009536743C4.000000095367431,19.99360009536743,20.000000095367433,19.99360009536743,20.000000095367433,19.99360009536743C20.000000095367433,19.99360009536743,20.000000095367433,19.99360009536743,20.000000095367433,19.99360009536743Z" fill="#10B981" fill-opacity="1"/></g></g></g></g></g></svg>