<svg xmlns="http://www.w3.org/2000/svg" xmlns:xlink="http://www.w3.org/1999/xlink" fill="none" version="1.1" width="24" height="24" viewBox="0 0 24 24"><clipPath id="master_svg0_16_3894/0_5594"><rect x="0" y="0" width="24" height="24" rx="0"/></clipPath><g clip-path="url(#master_svg0_16_3894/0_5594)" style="mix-blend-mode:passthrough"><g><g style="mix-blend-mode:passthrough"><g><g style="mix-blend-mode:passthrough"><path d="M2.4000000953674316,7.200000190734864C2.4000000953674316,6.563480190734863,2.6528560953674316,5.9530301907348635,3.1029460953674315,5.502946190734863C3.553030095367432,5.052856190734864,4.163480095367431,4.800000190734864,4.800000095367432,4.800000190734863C4.800000095367432,4.800000190734863,19.200000095367432,4.800000190734863,19.200000095367432,4.800000190734863C19.83650009536743,4.800000190734864,20.447000095367432,5.052856190734864,20.89700009536743,5.502946190734863C21.34710009536743,5.9530301907348635,21.60000009536743,6.563480190734863,21.60000009536743,7.200000190734864C21.60000009536743,7.200000190734864,21.60000009536743,16.800000190734863,21.60000009536743,16.800000190734863C21.60000009536743,17.43650019073486,21.34710009536743,18.047000190734863,20.89700009536743,18.497000190734862C20.447000095367432,18.947100190734865,19.83650009536743,19.200000190734862,19.200000095367432,19.200000190734862C19.200000095367432,19.200000190734862,4.800000095367432,19.200000190734862,4.800000095367432,19.200000190734862C4.163480095367431,19.200000190734862,3.553030095367432,18.947100190734865,3.1029460953674315,18.497000190734862C2.6528560953674316,18.047000190734863,2.400000095367432,17.43650019073486,2.4000000953674316,16.800000190734863C2.4000000953674316,16.800000190734863,2.4000000953674316,7.200000190734864,2.4000000953674316,7.200000190734864C2.4000000953674316,7.200000190734864,2.4000000953674316,7.200000190734864,2.4000000953674316,7.200000190734864ZM4.800000095367432,6.0000001907348635C4.481740095367432,6.0000001907348635,4.176510095367432,6.1264301907348635,3.9514700953674318,6.351470190734863C3.726430095367432,6.576510190734863,3.600000095367432,6.881740190734863,3.600000095367432,7.200000190734864C3.600000095367432,7.200000190734864,3.600000095367432,7.460400190734863,3.600000095367432,7.460400190734863C3.600000095367432,7.460400190734863,12.000000095367431,12.500400190734863,12.000000095367431,12.500400190734863C12.000000095367431,12.500400190734863,20.40000009536743,7.460400190734863,20.40000009536743,7.460400190734863C20.40000009536743,7.460400190734863,20.40000009536743,7.200000190734864,20.40000009536743,7.200000190734864C20.40000009536743,6.881740190734863,20.27360009536743,6.576510190734863,20.04850009536743,6.351470190734863C19.823500095367432,6.1264301907348635,19.518200095367433,6.0000001907348635,19.200000095367432,6.0000001907348635C19.200000095367432,6.0000001907348635,4.800000095367432,6.0000001907348635,4.800000095367432,6.0000001907348635C4.800000095367432,6.0000001907348635,4.800000095367432,6.0000001907348635,4.800000095367432,6.0000001907348635ZM20.40000009536743,8.859600190734863C20.40000009536743,8.859600190734863,14.690400095367432,12.285600190734863,14.690400095367432,12.285600190734863C14.690400095367432,12.285600190734863,20.40000009536743,15.736800190734863,20.40000009536743,15.736800190734863C20.40000009536743,15.736800190734863,20.40000009536743,8.860800190734864,20.40000009536743,8.860800190734864C20.40000009536743,8.860800190734864,20.40000009536743,8.859600190734863,20.40000009536743,8.859600190734863C20.40000009536743,8.859600190734863,20.40000009536743,8.859600190734863,20.40000009536743,8.859600190734863ZM20.35920009536743,17.113200190734865C20.35920009536743,17.113200190734865,13.525200095367431,12.984000190734863,13.525200095367431,12.984000190734863C13.525200095367431,12.984000190734863,12.000000095367431,13.899600190734864,12.000000095367431,13.899600190734864C12.000000095367431,13.899600190734864,10.473600095367432,12.984000190734863,10.473600095367432,12.984000190734863C10.473600095367432,12.984000190734863,3.6408000953674318,17.11200019073486,3.6408000953674318,17.11200019073486C3.7094400953674316,17.366900190734864,3.8602200953674317,17.59210019073486,4.0697900953674315,17.752600190734864C4.279350095367432,17.913200190734862,4.536010095367432,18.000100190734862,4.800000095367432,18.000000190734863C4.800000095367432,18.000000190734863,19.200000095367432,18.000000190734863,19.200000095367432,18.000000190734863C19.463900095367432,18.000200190734866,19.72040009536743,17.913400190734862,19.929900095367433,17.753100190734862C20.13950009536743,17.592800190734863,20.29030009536743,17.367900190734865,20.35920009536743,17.113200190734865C20.35920009536743,17.113200190734865,20.35920009536743,17.113200190734865,20.35920009536743,17.113200190734865C20.35920009536743,17.113200190734865,20.35920009536743,17.113200190734865,20.35920009536743,17.113200190734865ZM3.600000095367432,15.736800190734863C3.600000095367432,15.736800190734863,9.309600095367433,12.285600190734863,9.309600095367433,12.285600190734863C9.309600095367433,12.285600190734863,3.600000095367432,8.859600190734863,3.600000095367432,8.859600190734863C3.600000095367432,8.859600190734863,3.600000095367432,15.735600190734864,3.600000095367432,15.735600190734864C3.600000095367432,15.735600190734864,3.600000095367432,15.736800190734863,3.600000095367432,15.736800190734863C3.600000095367432,15.736800190734863,3.600000095367432,15.736800190734863,3.600000095367432,15.736800190734863Z" fill="#10B981" fill-opacity="1"/></g></g></g></g></g></svg>